<svg width="24" height="24" viewBox="0 0 24 24" fill="none" xmlns="http://www.w3.org/2000/svg">
<path d="M4 6.57136C4 5.30899 5.04361 4.28564 6.33098 4.28564H17.9859C19.2732 4.28564 20.3168 5.30899 20.3168 6.57136V20.2856C20.3168 21.548 19.2732 22.5714 17.9859 22.5714H6.33098C5.04361 22.5714 4 21.548 4 20.2856V6.57136Z" fill="#F9983F"/>
<path d="M8.66162 6.34272C8.66162 6.46895 8.76598 6.57129 8.89472 6.57129H15.4215C15.5502 6.57129 15.6545 6.46895 15.6545 6.34272V5.04748C15.6545 3.36433 14.2631 1.99986 12.5466 1.99986H11.7696C10.0531 1.99986 8.66162 3.36433 8.66162 5.04748V6.34272Z" fill="#EA801E"/>
<path d="M9.103 10.0156C9.29785 9.97677 9.50016 10.0168 9.66553 10.1269C9.83089 10.2371 9.94579 10.4084 9.985 10.6031L10.831 14.8326L11.522 12.0681C11.5626 11.906 11.6563 11.762 11.7881 11.6592C11.9199 11.5563 12.0823 11.5005 12.2495 11.5005C12.4167 11.5005 12.5791 11.5563 12.7109 11.6592C12.8427 11.762 12.9364 11.906 12.977 12.0681L13.668 14.8326L14.514 10.6026C14.5531 10.4076 14.6681 10.236 14.8337 10.1258C14.9993 10.0155 15.2019 9.97553 15.397 10.0146C15.5921 10.0538 15.7636 10.1688 15.8739 10.3344C15.9841 10.5 16.0241 10.7026 15.985 10.8976L15.665 12.5006H15.75C15.9489 12.5006 16.1397 12.5797 16.2803 12.7203C16.421 12.861 16.5 13.0517 16.5 13.2506C16.5 13.4496 16.421 13.6403 16.2803 13.781C16.1397 13.9216 15.9489 14.0006 15.75 14.0006H15.365L15.265 14.5006H15.75C15.9489 14.5006 16.1397 14.5797 16.2803 14.7203C16.421 14.861 16.5 15.0517 16.5 15.2506C16.5 15.4496 16.421 15.6403 16.2803 15.781C16.1397 15.9216 15.9489 16.0006 15.75 16.0006H14.965L14.5725 17.9616C14.395 18.8506 13.1345 18.8806 12.9145 18.0011L12.25 15.3431L11.585 18.0006C11.3655 18.8806 10.105 18.8506 9.9275 17.9611L9.535 16.0006H8.75C8.55109 16.0006 8.36032 15.9216 8.21967 15.781C8.07902 15.6403 8 15.4496 8 15.2506C8 15.0517 8.07902 14.861 8.21967 14.7203C8.36032 14.5797 8.55109 14.5006 8.75 14.5006H9.235L9.135 14.0006H8.75C8.55109 14.0006 8.36032 13.9216 8.21967 13.781C8.07902 13.6403 8 13.4496 8 13.2506C8 13.0517 8.07902 12.861 8.21967 12.7203C8.36032 12.5797 8.55109 12.5006 8.75 12.5006H8.835L8.515 10.8976C8.47612 10.7028 8.51615 10.5005 8.6263 10.3351C8.73645 10.1698 8.90822 10.0549 9.103 10.0156Z" fill="#FFEFD1"/>
</svg>
