<svg width="27" height="22" viewBox="0 0 27 22" fill="none" xmlns="http://www.w3.org/2000/svg">
<path d="M13.8515 7.3105C13.8515 10.9974 10.8626 13.9862 7.17573 13.9862C3.48883 13.9862 0.5 10.9974 0.5 7.3105C0.5 3.62359 3.48883 0.634766 7.17573 0.634766C10.8626 0.634766 13.8515 3.62359 13.8515 7.3105Z" fill="#056BF1"/>
<path d="M26.5 11.8787C26.5 17.1179 22.2527 21.3652 17.0134 21.3652C11.7741 21.3652 7.52686 17.1179 7.52686 11.8787C7.52686 6.63937 11.7741 2.39209 17.0134 2.39209C22.2527 2.39209 26.5 6.63937 26.5 11.8787Z" fill="#64A7FF"/>
<path fill-rule="evenodd" clip-rule="evenodd" d="M16.0649 4.49965C16.0649 4.16977 16.3324 3.90234 16.6622 3.90234C21.2612 3.90234 24.9893 7.63051 24.9893 12.2294C24.9893 12.5593 24.7219 12.8267 24.392 12.8267C24.0622 12.8267 23.7947 12.5593 23.7947 12.2294C23.7947 8.29028 20.6014 5.09695 16.6622 5.09695C16.3324 5.09695 16.0649 4.82953 16.0649 4.49965Z" fill="#F2F3F8"/>
<path fill-rule="evenodd" clip-rule="evenodd" d="M4.02707 4.7896C3.39041 5.8507 3.17023 7.14864 3.17023 8.01392C3.17023 8.32439 2.91854 8.57608 2.60807 8.57608C2.29759 8.57608 2.0459 8.32439 2.0459 8.01392C2.0459 7.00531 2.2942 5.4924 3.06296 4.21114C3.84933 2.90051 5.18891 1.83008 7.29279 1.83008C7.60327 1.83008 7.85496 2.08177 7.85496 2.39225C7.85496 2.70272 7.60327 2.95441 7.29279 2.95441C5.64889 2.95441 4.64611 3.75787 4.02707 4.7896Z" fill="#F2F3F8"/>
</svg>
