<svg width="80" height="80" viewBox="0 0 80 80" fill="none" xmlns="http://www.w3.org/2000/svg">
<path d="M39.8649 31.4574C39.8649 40.5327 32.5078 47.8898 23.4324 47.8898C14.3571 47.8898 7 40.5327 7 31.4574C7 22.382 14.3571 15.0249 23.4324 15.0249C32.5078 15.0249 39.8649 22.382 39.8649 31.4574Z" fill="#FFB120"/>
<path d="M71.0001 42.7006C71.0001 55.5972 60.5453 66.052 47.6487 66.052C34.7521 66.052 24.2974 55.5972 24.2974 42.7006C24.2974 29.804 34.7521 19.3493 47.6487 19.3493C60.5453 19.3493 71.0001 29.804 71.0001 42.7006Z" fill="#056BF1"/>
<path fill-rule="evenodd" clip-rule="evenodd" d="M45.3135 24.5387C45.3135 23.7267 45.9717 23.0684 46.7837 23.0684C58.1041 23.0684 67.281 32.2454 67.281 43.5657C67.281 44.3777 66.6228 45.036 65.8108 45.036C64.9988 45.036 64.3405 44.3777 64.3405 43.5657C64.3405 33.8694 56.4801 26.009 46.7837 26.009C45.9717 26.009 45.3135 25.3507 45.3135 24.5387Z" fill="#F2F3F8"/>
<path fill-rule="evenodd" clip-rule="evenodd" d="M15.6821 25.2507C14.1149 27.8626 13.573 31.0575 13.573 33.1874C13.573 33.9517 12.9534 34.5712 12.1892 34.5712C11.425 34.5712 10.8054 33.9517 10.8054 33.1874C10.8054 30.7047 11.4166 26.9807 13.3089 23.8268C15.2446 20.6007 18.542 17.9658 23.7207 17.9658C24.485 17.9658 25.1045 18.5854 25.1045 19.3496C25.1045 20.1138 24.485 20.7334 23.7207 20.7334C19.6743 20.7334 17.2059 22.7111 15.6821 25.2507Z" fill="#F2F3F8"/>
<path fill-rule="evenodd" clip-rule="evenodd" d="M57.4693 9.1187C57.4405 9.19165 57.3828 9.24939 57.3098 9.27816L54.3704 10.4375C54.1314 10.5317 54.1314 10.8699 54.3704 10.9641L57.3098 12.1234C57.3828 12.1522 57.4405 12.2099 57.4693 12.2829L58.6286 15.2223C58.7228 15.4613 59.061 15.4613 59.1552 15.2223L60.3145 12.2829C60.3433 12.2099 60.4011 12.1522 60.474 12.1234L63.4135 10.9641C63.6524 10.8699 63.6524 10.5317 63.4135 10.4375L60.474 9.27816C60.4011 9.24939 60.3433 9.19165 60.3145 9.1187L59.1552 6.17922C59.061 5.94029 58.7228 5.94029 58.6286 6.17922L57.4693 9.1187ZM58.8919 9.04751L58.6761 9.59466C58.5155 10.002 58.1931 10.3244 57.7858 10.485L57.2387 10.7008L57.7858 10.9166C58.1931 11.0772 58.5155 11.3996 58.6761 11.8069L58.8919 12.354L59.1077 11.8069C59.2684 11.3996 59.5908 11.0772 59.998 10.9166L60.5452 10.7008L59.998 10.485C59.5907 10.3244 59.2683 10.002 59.1077 9.59466L58.8919 9.04751Z" fill="#056BF1"/>
<path fill-rule="evenodd" clip-rule="evenodd" d="M45.3611 33.3349C45.3324 33.4079 45.2746 33.4656 45.2017 33.4944L42.2622 34.6537C42.0233 34.7479 42.0233 35.0861 42.2622 35.1803L45.2017 36.3396C45.2746 36.3684 45.3324 36.4261 45.3611 36.4991L46.5205 39.4386C46.6147 39.6775 46.9528 39.6775 47.0471 39.4386L48.2064 36.4991C48.2352 36.4261 48.2929 36.3684 48.3659 36.3396L51.3053 35.1803C51.5443 35.0861 51.5443 34.7479 51.3053 34.6537L48.3659 33.4944C48.2929 33.4656 48.2352 33.4079 48.2064 33.3349L47.0471 30.3954C46.9528 30.1565 46.6147 30.1565 46.5205 30.3954L45.3611 33.3349ZM46.7838 33.2637L46.568 33.8109C46.4073 34.2182 46.0849 34.5406 45.6777 34.7012L45.1305 34.917L45.6777 35.1328C46.0849 35.2934 46.4073 35.6158 46.568 36.0231L46.7838 36.5703L46.9996 36.0231C47.1602 35.6158 47.4826 35.2934 47.8899 35.1328L48.437 34.917L47.8899 34.7012C47.4826 34.5406 47.1602 34.2182 46.9996 33.8109L46.7838 33.2637Z" fill="#F2F3F8"/>
<path fill-rule="evenodd" clip-rule="evenodd" d="M55.7396 41.9836C55.7108 42.0565 55.6531 42.1143 55.5801 42.143L52.6406 43.3023C52.4017 43.3966 52.4017 43.7347 52.6406 43.829L55.5801 44.9883C55.6531 45.017 55.7108 45.0748 55.7396 45.1477L56.8989 48.0872C56.9931 48.3261 57.3313 48.3261 57.4255 48.0872L58.5848 45.1477C58.6136 45.0748 58.6713 45.017 58.7443 44.9883L61.6838 43.829C61.9227 43.7347 61.9227 43.3966 61.6837 43.3023L58.7443 42.143C58.6713 42.1143 58.6136 42.0565 58.5848 41.9836L57.4255 39.0441C57.3313 38.8052 56.9931 38.8052 56.8989 39.0441L55.7396 41.9836ZM57.1622 41.9124L56.9464 42.4595C56.7858 42.8668 56.4634 43.1892 56.0561 43.3499L55.5089 43.5656L56.0561 43.7814C56.4634 43.9421 56.7858 44.2645 56.9464 44.6718L57.1622 45.2189L57.378 44.6718C57.5386 44.2645 57.861 43.9421 58.2683 43.7814L58.8155 43.5656L58.2683 43.3499C57.861 43.1892 57.5386 42.8668 57.378 42.4595L57.1622 41.9124Z" fill="#F2F3F8"/>
<path fill-rule="evenodd" clip-rule="evenodd" d="M14.2259 57.5511C14.1971 57.6241 14.1394 57.6818 14.0664 57.7106L11.127 58.8699C10.888 58.9641 10.888 59.3023 11.127 59.3965L14.0664 60.5558C14.1394 60.5846 14.1971 60.6424 14.2259 60.7153L15.3852 63.6548C15.4794 63.8937 15.8176 63.8937 15.9118 63.6548L17.0711 60.7153C17.0999 60.6423 17.1577 60.5846 17.2306 60.5558L20.1701 59.3965C20.409 59.3023 20.409 58.9641 20.1701 58.8699L17.2306 57.7106C17.1577 57.6818 17.0999 57.6241 17.0711 57.5511L15.9118 54.6117C15.8176 54.3727 15.4794 54.3727 15.3852 54.6117L14.2259 57.5511ZM15.6485 57.4799L15.4327 58.0271C15.2721 58.4344 14.9497 58.7568 14.5424 58.9174L13.9952 59.1332L14.5424 59.349C14.9497 59.5096 15.2721 59.832 15.4327 60.2393L15.6485 60.7865L15.8643 60.2393C16.0249 59.832 16.3473 59.5096 16.7546 59.349L17.3018 59.1332L16.7546 58.9174C16.3473 58.7568 16.0249 58.4344 15.8643 58.0271L15.6485 57.4799Z" fill="#056BF1"/>
</svg>
