<svg width="57" height="47" viewBox="0 0 57 47" fill="none" xmlns="http://www.w3.org/2000/svg">
<g filter="url(#filter0_d_2208_3148)">
<path d="M29.1026 16.5513C29.1026 23.4832 23.4832 29.1026 16.5513 29.1026C9.6194 29.1026 4 23.4832 4 16.5513C4 9.6194 9.6194 4 16.5513 4C23.4832 4 29.1026 9.6194 29.1026 16.5513Z" fill="#FFB120"/>
<path d="M52.884 25.139C52.884 34.9896 44.8985 42.975 35.0479 42.975C25.1974 42.975 17.2119 34.9896 17.2119 25.139C17.2119 15.2884 25.1974 7.30298 35.0479 7.30298C44.8985 7.30298 52.884 15.2884 52.884 25.139Z" fill="#056BF1"/>
<path fill-rule="evenodd" clip-rule="evenodd" d="M33.2642 11.2667C33.2642 10.6465 33.7669 10.1437 34.3872 10.1437C43.0338 10.1437 50.0432 17.1532 50.0432 25.7998C50.0432 26.42 49.5405 26.9228 48.9202 26.9228C48.3 26.9228 47.7972 26.42 47.7972 25.7998C47.7972 18.3936 41.7933 12.3898 34.3872 12.3898C33.7669 12.3898 33.2642 11.887 33.2642 11.2667Z" fill="#F2F3F8"/>
<path fill-rule="evenodd" clip-rule="evenodd" d="M10.6316 11.8106C9.4346 13.8056 9.02064 16.2459 9.02064 17.8727C9.02064 18.4565 8.54743 18.9297 7.96369 18.9297C7.37995 18.9297 6.90674 18.4565 6.90674 17.8727C6.90674 15.9764 7.37357 13.1319 8.81894 10.723C10.2974 8.25884 12.816 6.24628 16.7716 6.24628C17.3553 6.24628 17.8286 6.71949 17.8286 7.30323C17.8286 7.88696 17.3553 8.36018 16.7716 8.36018C13.6809 8.36018 11.7955 9.87078 10.6316 11.8106Z" fill="#F2F3F8"/>
<path fill-rule="evenodd" clip-rule="evenodd" d="M33.3008 17.9854C33.2788 18.0411 33.2347 18.0852 33.179 18.1072L30.9337 18.9926C30.7512 19.0646 30.7513 19.3229 30.9337 19.3949L33.179 20.2804C33.2347 20.3024 33.2788 20.3465 33.3008 20.4022L34.1863 22.6474C34.2582 22.8299 34.5165 22.8299 34.5885 22.6474L35.474 20.4022C35.496 20.3465 35.5401 20.3024 35.5958 20.2804L37.841 19.3949C38.0235 19.3229 38.0235 19.0646 37.841 18.9926L35.5958 18.1072C35.5401 18.0852 35.496 18.0411 35.474 17.9854L34.5885 15.7401C34.5165 15.5576 34.2582 15.5576 34.1863 15.7401L33.3008 17.9854ZM34.3874 17.931L34.2225 18.3489C34.0999 18.66 33.8536 18.9062 33.5425 19.0289L33.1246 19.1938L33.5425 19.3586C33.8536 19.4813 34.0999 19.7275 34.2225 20.0386L34.3874 20.4566L34.5522 20.0386C34.6749 19.7275 34.9211 19.4813 35.2322 19.3586L35.6502 19.1938L35.2322 19.0289C34.9211 18.9062 34.6749 18.66 34.5522 18.3489L34.3874 17.931Z" fill="#F2F3F8"/>
<path fill-rule="evenodd" clip-rule="evenodd" d="M41.228 24.5913C41.206 24.647 41.1619 24.6911 41.1062 24.7131L38.861 25.5986C38.6785 25.6706 38.6785 25.9289 38.861 26.0008L41.1062 26.8863C41.1619 26.9083 41.206 26.9524 41.228 27.0081L42.1135 29.2533C42.1855 29.4358 42.4438 29.4358 42.5157 29.2533L43.4012 27.0081C43.4232 26.9524 43.4673 26.9083 43.523 26.8863L45.7682 26.0008C45.9507 25.9289 45.9507 25.6706 45.7682 25.5986L43.523 24.7131C43.4673 24.6911 43.4232 24.647 43.4012 24.5913L42.5157 22.3461C42.4438 22.1636 42.1855 22.1636 42.1135 22.3461L41.228 24.5913ZM42.3146 24.5369L42.1498 24.9549C42.0271 25.266 41.7808 25.5122 41.4698 25.6349L41.0518 25.7997L41.4698 25.9646C41.7808 26.0872 42.0271 26.3335 42.1498 26.6446L42.3146 27.0625L42.4794 26.6446C42.6021 26.3335 42.8484 26.0872 43.1595 25.9645L43.5774 25.7997L43.1595 25.6349C42.8484 25.5122 42.6021 25.266 42.4794 24.9549L42.3146 24.5369Z" fill="#F2F3F8"/>
</g>
<defs>
<filter id="filter0_d_2208_3148" x="0" y="0" width="56.8838" height="46.975" filterUnits="userSpaceOnUse" color-interpolation-filters="sRGB">
<feFlood flood-opacity="0" result="BackgroundImageFix"/>
<feColorMatrix in="SourceAlpha" type="matrix" values="0 0 0 0 0 0 0 0 0 0 0 0 0 0 0 0 0 0 127 0" result="hardAlpha"/>
<feOffset/>
<feGaussianBlur stdDeviation="2"/>
<feComposite in2="hardAlpha" operator="out"/>
<feColorMatrix type="matrix" values="0 0 0 0 0 0 0 0 0 0 0 0 0 0 0 0 0 0 0.25 0"/>
<feBlend mode="normal" in2="BackgroundImageFix" result="effect1_dropShadow_2208_3148"/>
<feBlend mode="normal" in="SourceGraphic" in2="effect1_dropShadow_2208_3148" result="shape"/>
</filter>
</defs>
</svg>
