<svg width="26" height="21" viewBox="0 0 26 21" fill="none" xmlns="http://www.w3.org/2000/svg">
<path d="M13.3515 6.67574C13.3515 10.3626 10.3626 13.3515 6.67573 13.3515C2.98883 13.3515 0 10.3626 0 6.67574C0 2.98883 2.98883 0 6.67573 0C10.3626 0 13.3515 2.98883 13.3515 6.67574Z" fill="#FFB120"/>
<path d="M26 11.2439C26 16.4832 21.7527 20.7305 16.5134 20.7305C11.2741 20.7305 7.02686 16.4832 7.02686 11.2439C7.02686 6.00461 11.2741 1.75732 16.5134 1.75732C21.7527 1.75732 26 6.00461 26 11.2439Z" fill="#056BF1"/>
<path fill-rule="evenodd" clip-rule="evenodd" d="M15.5649 3.86488C15.5649 3.535 15.8324 3.26758 16.1622 3.26758C20.7612 3.26758 24.4893 6.99575 24.4893 11.5947C24.4893 11.9246 24.2219 12.192 23.892 12.192C23.5622 12.192 23.2947 11.9246 23.2947 11.5947C23.2947 7.65551 20.1014 4.46218 16.1622 4.46218C15.8324 4.46218 15.5649 4.19476 15.5649 3.86488Z" fill="#F2F3F8"/>
<path fill-rule="evenodd" clip-rule="evenodd" d="M3.52707 4.15484C2.89041 5.21594 2.67023 6.51387 2.67023 7.37915C2.67023 7.68963 2.41854 7.94132 2.10807 7.94132C1.79759 7.94132 1.5459 7.68963 1.5459 7.37915C1.5459 6.37054 1.7942 4.85764 2.56296 3.57637C3.34933 2.26575 4.68891 1.19531 6.79279 1.19531C7.10327 1.19531 7.35496 1.447 7.35496 1.75748C7.35496 2.06796 7.10327 2.31965 6.79279 2.31965C5.14889 2.31965 4.14611 3.1231 3.52707 4.15484Z" fill="#F2F3F8"/>
</svg>
