<svg width="25" height="24" viewBox="0 0 25 24" fill="none" xmlns="http://www.w3.org/2000/svg">
<path d="M10.4999 20H14.4999C18.2709 20 20.1569 20 21.3279 18.828C22.4999 17.657 22.4999 15.771 22.4999 12C22.4999 11.558 22.4979 10.392 22.4959 10H2.49991C2.49791 10.392 2.49991 11.558 2.49991 12C2.49991 15.771 2.49991 17.657 3.67091 18.828C4.84291 20 6.72991 20 10.4999 20Z" fill="#F0F7FF"/>
<path d="M10.495 4H14.505C18.286 4 20.177 4 21.351 5.116C22.197 5.919 22.434 7.076 22.5 9V10H2.5V9C2.566 7.075 2.803 5.92 3.649 5.116C4.823 4 6.714 4 10.495 4ZM13 15.25C12.8011 15.25 12.6103 15.329 12.4697 15.4697C12.329 15.6103 12.25 15.8011 12.25 16C12.25 16.1989 12.329 16.3897 12.4697 16.5303C12.6103 16.671 12.8011 16.75 13 16.75H14.5C14.6989 16.75 14.8897 16.671 15.0303 16.5303C15.171 16.3897 15.25 16.1989 15.25 16C15.25 15.8011 15.171 15.6103 15.0303 15.4697C14.8897 15.329 14.6989 15.25 14.5 15.25H13ZM6.5 15.25C6.30109 15.25 6.11032 15.329 5.96967 15.4697C5.82902 15.6103 5.75 15.8011 5.75 16C5.75 16.1989 5.82902 16.3897 5.96967 16.5303C6.11032 16.671 6.30109 16.75 6.5 16.75H10.5C10.6989 16.75 10.8897 16.671 11.0303 16.5303C11.171 16.3897 11.25 16.1989 11.25 16C11.25 15.8011 11.171 15.6103 11.0303 15.4697C10.8897 15.329 10.6989 15.25 10.5 15.25H6.5Z" fill="#64A7FF"/>
</svg>
