<svg width="17" height="22" viewBox="0 0 17 22" fill="none" xmlns="http://www.w3.org/2000/svg">
<path opacity="0.7" d="M15.1396 15.038L15.384 13.0329L14.6395 12.9422L14.884 10.9371L15.6285 11.0279L15.873 9.0228L15.1285 8.93202L15.373 6.92696L16.1175 7.01773L16.3619 5.01266L15.6175 4.92189L15.8619 2.91682L16.6064 3.0076L16.8509 1.00253L16.1064 0.911757L16.1261 0.75H15.9123V0H13.7907V0.75H11.669V0H9.54739V0.75H7.42575V0H5.30411V0.75H3.18246V0H1.06082V0.75H0.847129L0.866875 0.911746L0.122403 1.00263L0.367208 3.00789L1.11168 2.91701L1.35649 4.92227L0.612012 5.01315L0.856817 7.01842L1.60129 6.92753L1.8461 8.93279L1.10162 9.02368L1.34643 11.0289L2.0909 10.9381L2.33571 12.9433L1.59123 13.0342L1.83604 15.0395L2.58051 14.9486L2.70291 15.9512L2.70296 15.9516C2.7559 16.3872 2.80384 16.7816 2.85082 17.1423L2.1071 17.2391C2.24003 18.2599 2.36608 19.0199 2.56461 19.602L3.27446 19.3599C3.39643 19.7175 3.53472 19.9466 3.69876 20.1172C3.85124 20.274 4.02518 20.3815 4.26682 20.4601L4.035 21.1733C4.54893 21.3404 5.20398 21.3843 6.08875 21.3958L6.09852 20.6459C6.40796 20.6499 6.74723 20.6499 7.12611 20.6499H7.80699V21.3999H9.16876V20.6499H9.84965C10.2283 20.6499 10.5675 20.6499 10.8769 20.6459L10.8866 21.3958C11.7712 21.3843 12.4263 21.3403 12.9396 21.1732L12.7074 20.4601C12.9491 20.3813 13.1222 20.2736 13.2734 20.1166L13.2739 20.1161C13.4386 19.9454 13.5774 19.7163 13.6997 19.3582L14.4094 19.6008C14.6084 19.0187 14.7347 18.2586 14.8681 17.2377L14.1244 17.1405C14.1714 16.7807 14.2194 16.3874 14.2724 15.953L14.2728 15.9498L14.2728 15.9497L14.3951 14.9472L15.1396 15.038Z" stroke="#FF5151" stroke-width="1.5" stroke-dasharray="2 2"/>
</svg>
