<svg width="12" height="14" viewBox="0 0 12 14" fill="none" xmlns="http://www.w3.org/2000/svg">
<path opacity="0.7" d="M5.03815 14H6.96369C8.48585 14 9.24646 14 9.76616 13.5009C10.2868 13.0018 10.3966 12.1665 10.6172 10.4939L12 0H0L1.38462 10.4949C1.60431 12.1675 1.71415 13.0028 2.23385 13.5019C2.75631 14 3.516 14 5.03815 14Z" fill="#5BC4FF"/>
<rect width="3.44525" height="3.35833" rx="1" transform="matrix(0.97993 0.199341 -0.201093 0.979572 6.67532 2)" fill="#F0F7FF"/>
<rect width="3.41879" height="3.38371" rx="1" transform="matrix(0.829249 -0.558879 0.562384 0.826876 1 5.91071)" fill="#F0F7FF"/>
<rect width="3.42971" height="3.37313" rx="1" transform="matrix(0.894942 0.446182 -0.449447 0.893307 6.51605 7)" fill="#F0F7FF"/>
</svg>
