<svg width="25" height="24" viewBox="0 0 25 24" fill="none" xmlns="http://www.w3.org/2000/svg">
<g clip-path="url(#clip0_894_1726)">
<path d="M20.5 20.5H4.5C3.4 20.5 2.5 19.6 2.5 18.5V8.05C2.5 7.4 2.8 6.8 3.35 6.4L12.5 0L21.65 6.4C22.2 6.75 22.5 7.4 22.5 8.05V18.5C22.5 19.6 21.6 20.5 20.5 20.5Z" fill="#FFE2AC"/>
<path d="M6.5 5.5H18.5V16.5H6.5V5.5Z" fill="#FFB120"/>
<path d="M20.5 20.5H4.5C3.4 20.5 2.5 19.6 2.5 18.5V8.5L12.5 15L22.5 8.5V18.5C22.5 19.6 21.6 20.5 20.5 20.5Z" fill="white"/>
</g>
<defs>
<clipPath id="clip0_894_1726">
<rect width="24" height="24" fill="white" transform="translate(0.5)"/>
</clipPath>
</defs>
</svg>
