<svg width="53" height="18" viewBox="0 0 53 18" fill="none" xmlns="http://www.w3.org/2000/svg">
<g id="&#225;&#132;&#143;&#225;&#133;&#161;&#225;&#132;&#143;&#225;&#133;&#161;&#225;&#132;&#139;&#225;&#133;&#169;&#225;&#132;&#145;&#225;&#133;&#166;&#225;&#132;&#139;&#225;&#133;&#181;_CI_combination 1" clip-path="url(#clip0_1336_1945)">
<g id="Group">
<g id="Group_2">
<g id="Group_3">
<path id="Vector" fill-rule="evenodd" clip-rule="evenodd" d="M8.08287 0.843262C3.61699 0.843262 0 3.72209 0 7.22836C0 9.51666 1.51323 11.5097 3.76462 12.6538L2.98955 15.4958C2.95265 15.5696 2.98955 15.6803 3.06337 15.7541C3.10028 15.791 3.17409 15.8279 3.211 15.8279C3.24791 15.8279 3.32173 15.791 3.35864 15.791L6.64345 13.5765C7.12326 13.6504 7.60306 13.6873 8.11978 13.6873C12.5857 13.6873 16.2026 10.8084 16.2026 7.30217C16.2026 3.72209 12.5857 0.843262 8.08287 0.843262Z" fill="black"/>
</g>
</g>
<path id="Vector_2" d="M23.0305 12.5431V16.6768H20.0779V1.43374H22.1447L22.5138 2.39334C23.1413 1.76591 24.1009 1.10156 25.6141 1.10156C28.4929 1.10156 29.8585 3.24223 29.8585 6.7485C29.8585 10.4024 27.7548 12.7276 24.7283 12.7276C24.1378 12.7645 23.6949 12.7276 23.0305 12.5431ZM23.0305 3.90658V10.4762C23.1782 10.5131 23.5841 10.55 23.9901 10.55C26.0939 10.55 26.9059 9.07371 26.9059 6.7485C26.9059 4.71855 26.3523 3.50059 24.6914 3.50059C24.1009 3.50059 23.5103 3.68513 23.0305 3.90658Z" fill="black"/>
<path id="Vector_3" d="M36.2443 5.75238H37.9052V5.3833C37.9052 4.16534 37.2039 3.61171 36.0229 3.61171C35.1002 3.61171 33.956 3.87007 32.9964 4.34988L32.1844 2.39375C33.2179 1.65559 34.8418 1.17578 36.2812 1.17578C39.0862 1.17578 40.6364 2.6521 40.6364 5.49403V12.4697H38.5695L38.2743 11.547C37.0932 12.3958 35.986 12.7649 35.0264 12.7649C32.8857 12.7649 31.6677 11.4731 31.6677 9.29556C31.6677 6.97035 33.2548 5.75238 36.2443 5.75238ZM37.9052 9.62773V7.59779H36.5396C35.0264 7.59779 34.2513 8.15141 34.2513 9.22174C34.2513 10.0337 34.6573 10.4397 35.5431 10.4397C36.392 10.4766 37.4254 10.0706 37.9052 9.62773Z" fill="black"/>
<path id="Vector_4" d="M49.5679 11.3254C48.5344 14.0566 47.3165 16.0497 45.508 17.1569L43.6995 15.496C44.7329 14.5733 45.508 13.6875 46.1354 12.5065L42.2231 1.84005L45.1389 1.06498L47.6486 9.70147L50.1215 1.02808L53.0003 1.84005L49.5679 11.3254Z" fill="black"/>
</g>
</g>
<defs>
<clipPath id="clip0_1336_1945">
<rect width="53" height="16.3134" fill="white" transform="translate(0 0.843262)"/>
</clipPath>
</defs>
</svg>
