<svg width="18" height="18" viewBox="0 0 18 18" fill="none" xmlns="http://www.w3.org/2000/svg">
<g id="kakao 1">
<path id="Vector" d="M8.98242 1.6875C10.5238 1.6875 11.9495 1.9875 13.2594 2.58749C14.5693 3.18748 15.6048 4.00335 16.366 5.03508C17.1272 6.06677 17.5078 7.19216 17.5078 8.4112C17.5078 9.63021 17.1272 10.7572 16.366 11.7921C15.6048 12.827 14.5709 13.6445 13.2641 14.2444C11.9574 14.8444 10.5302 15.1444 8.98242 15.1444C8.494 15.1444 7.98968 15.1095 7.46954 15.0397C5.21132 16.6079 4.00929 17.4015 3.86339 17.4206C3.79361 17.446 3.72698 17.4428 3.66356 17.4111C3.63818 17.392 3.61916 17.3666 3.60647 17.3348C3.59378 17.3031 3.58745 17.2746 3.58745 17.2491V17.2111C3.62552 16.9634 3.91412 15.9317 4.45331 14.1159C3.22905 13.5064 2.25694 12.6984 1.53698 11.6921C0.817014 10.6858 0.457031 9.59214 0.457031 8.4112C0.457031 7.19216 0.837629 6.06677 1.59883 5.03508C2.36002 4.00335 3.39556 3.18748 4.70545 2.58749C6.01534 1.9875 7.441 1.6875 8.98242 1.6875Z" fill="black"/>
</g>
</svg>
