<svg width="157" height="164" viewBox="0 0 157 164" fill="none" xmlns="http://www.w3.org/2000/svg">
<rect width="156.478" height="164" fill="#F2F3F8"/>
<path d="M113.649 0H156.478V82H86.0631L113.649 0Z" fill="#AEEA8A"/>
<path d="M0 0H102.233L74.7912 82H0V0Z" fill="#AEEA8A"/>
<path d="M43.0422 92H156.5V138L27.5 137.5L43.0422 92Z" fill="#AEEA8A"/>
<path d="M0 92H32.3389L16.7817 138H0V92Z" fill="#AEEA8A"/>
<circle cx="56.5" cy="104.5" r="16.5" fill="white" stroke="#FFB120" stroke-width="2"/>
<mask id="path-7-inside-1_3068_1662" fill="white">
<path fill-rule="evenodd" clip-rule="evenodd" d="M49.4223 120.426C49.3536 119.985 49.2852 119.49 49.2083 118.933L47.0208 103.162H65.9791L63.7946 118.931L63.7938 118.937C63.7169 119.492 63.6485 119.985 63.5797 120.425C61.4151 121.438 59.0197 122 56.5 122C53.981 122 51.5864 121.438 49.4223 120.426Z"/>
</mask>
<path d="M49.2083 118.933L50.6942 118.728L50.6941 118.727L49.2083 118.933ZM49.4223 120.426L47.9402 120.657L48.0632 121.447L48.787 121.785L49.4223 120.426ZM47.0208 103.162V101.662H45.2984L45.535 103.369L47.0208 103.162ZM65.9791 103.162L67.465 103.368L67.7013 101.662H65.9791V103.162ZM63.7946 118.931L65.2804 119.137L65.2804 119.137L63.7946 118.931ZM63.7938 118.937L65.2796 119.143L65.2796 119.143L63.7938 118.937ZM63.5797 120.425L64.2152 121.784L64.9384 121.446L65.0617 120.657L63.5797 120.425ZM47.7224 119.138C47.7988 119.691 47.869 120.2 47.9402 120.657L50.9045 120.195C50.8381 119.769 50.7716 119.288 50.6942 118.728L47.7224 119.138ZM45.535 103.369L47.7225 119.139L50.6941 118.727L48.5066 102.956L45.535 103.369ZM65.9791 101.662H47.0208V104.662H65.9791V101.662ZM65.2804 119.137L67.465 103.368L64.4933 102.957L62.3088 118.726L65.2804 119.137ZM65.2796 119.143L65.2804 119.137L62.3088 118.726L62.308 118.731L65.2796 119.143ZM65.0617 120.657C65.1329 120.201 65.2032 119.694 65.2796 119.143L62.308 118.731C62.2306 119.289 62.1641 119.769 62.0977 120.194L65.0617 120.657ZM62.9442 119.066C60.9727 119.989 58.7938 120.5 56.5 120.5V123.5C59.2457 123.5 61.8575 122.887 64.2152 121.784L62.9442 119.066ZM56.5 120.5C54.2069 120.5 52.0286 119.989 50.0577 119.067L48.787 121.785C51.1441 122.887 53.7552 123.5 56.5 123.5V120.5Z" fill="#FFB120" mask="url(#path-7-inside-1_3068_1662)"/>
<path d="M48.8729 115.792H64.1315L65.199 108.5H47.804L48.8729 115.792Z" fill="#FFB120"/>
<path d="M59.9418 96.25H53.057C50.8106 96.25 49.6868 96.25 48.8027 96.8629C48.6505 96.969 48.5054 97.0876 48.3686 97.2176C47.5737 97.9699 47.2166 99.1722 46.5061 101.58L46.4621 101.727C46.072 103.045 45.8776 103.705 46.083 104.204C46.1482 104.361 46.2391 104.503 46.3508 104.622C46.7042 105 47.3206 105 48.552 105H64.4492C65.6807 105 66.2958 105 66.6504 104.622C66.7605 104.503 66.8522 104.36 66.917 104.204C67.1224 103.705 66.928 103.045 66.5379 101.727L66.4939 101.58C65.7834 99.1722 65.4275 97.9699 64.6327 97.2176C64.4954 97.0875 64.3499 96.969 64.1973 96.8629C63.3132 96.25 62.1894 96.25 59.9418 96.25Z" fill="#FFB120"/>
<circle cx="109.5" cy="47.5" r="17.5" fill="#056BF1"/>
<path d="M115.502 49.0004C115.502 52.3156 112.815 55.002 109.5 55.002C106.189 55.002 103.498 52.3156 103.498 49.0004C103.498 45.6852 106.185 42.9988 109.5 42.9988V45.9996L114.617 40.9998L109.5 36V39.0008C103.979 39.0008 99.5004 43.4795 99.5004 49.0004C99.5004 54.5213 103.979 59 109.5 59C115.021 59 119.5 54.5213 119.5 49.0004H115.502Z" fill="white"/>
</svg>
