<svg width="283" height="304" viewBox="0 0 283 304" fill="none" xmlns="http://www.w3.org/2000/svg" xmlns:xlink="http://www.w3.org/1999/xlink">
<path d="M79.3511 178.22L97.2239 169.858C102.226 167.518 108.206 169.663 110.58 174.649L122.337 199.346C124.711 204.333 122.58 210.273 117.578 212.613L99.7052 220.975L79.3511 178.22Z" fill="#BFDBFF"/>
<path d="M64.21 196.344C61.8361 191.358 63.9669 185.418 68.9693 183.077L88.0195 174.164C93.0219 171.824 99.0016 173.969 101.376 178.956L113.133 203.653C115.507 208.639 113.376 214.579 108.374 216.919L89.3233 225.832C84.3209 228.173 78.3412 226.028 75.9673 221.041L64.21 196.344Z" fill="#E2EFFF"/>
<g filter="url(#filter0_d_858_946)">
<path d="M50.1812 225.189L63.3087 235.552C69.8112 240.685 70.877 250.081 65.6892 256.54L52.2691 273.248C47.0813 279.707 37.6045 280.782 31.1021 275.649L17.9745 265.286L50.1812 225.189Z" fill="#BFDBFF"/>
<rect width="43.782" height="51.4301" rx="15" transform="matrix(0.784917 0.619601 -0.62622 0.779647 32.2065 211)" fill="white"/>
</g>
<g filter="url(#filter1_d_858_946)">
<path d="M157.225 207.454L181.668 185.591C187.843 180.068 197.369 180.557 202.945 186.684L238.095 225.305C243.671 231.432 243.186 240.875 237.011 246.398L212.568 268.262L157.225 207.454Z" fill="#BFDBFF"/>
<rect width="65.9594" height="82.221" rx="15" transform="matrix(0.745344 -0.66668 0.673091 0.73956 131.511 230.455)" fill="white"/>
</g>
<g filter="url(#filter2_d_858_946)">
<path d="M140.163 193.872L171.688 203.441C179.615 205.848 184.059 214.215 181.615 222.13L166.281 271.778C163.836 279.693 155.428 284.159 147.501 281.753L115.976 272.184L140.163 193.872Z" fill="#BFDBFF"/>
<rect width="66.1668" height="81.9612" rx="15" transform="matrix(0.956889 0.290453 -0.295101 0.955466 107.047 183.82)" fill="white"/>
</g>
<path d="M22.1987 19.1674L28.8239 16.0677C33.8263 13.7273 39.806 15.8724 42.1799 20.859L46.1208 29.1371C48.4947 34.1237 46.3639 40.0635 41.3615 42.404L34.7364 45.5037L22.1987 19.1674Z" fill="#BFDBFF"/>
<path d="M15.1768 33.4929C12.8029 28.5063 14.9337 22.5665 19.9361 20.2261L23.4639 18.5755C28.4663 16.2351 34.446 18.3802 36.8199 23.3668L40.7608 31.6448C43.1347 36.6314 41.0039 42.5712 36.0015 44.9117L32.4737 46.5622C27.4713 48.9027 21.4916 46.7575 19.1177 41.7709L15.1768 33.4929Z" fill="white"/>
<path d="M11.7319 109.189L7.4013 107.189C4.89428 106.031 3.69262 103.014 4.71733 100.45L7.64061 93.1343C8.66532 90.57 11.5284 89.4298 14.0354 90.5875L18.366 92.5873L11.7319 109.189Z" fill="#BFDBFF"/>
<path d="M21.0605 107.992C20.0358 110.556 17.1727 111.696 14.6657 110.539L11.5033 109.078C8.99633 107.921 7.79468 104.903 8.81939 102.339L11.7413 95.0273C12.766 92.463 15.629 91.3228 18.1361 92.4805L21.2984 93.9408C23.8054 95.0986 25.0071 98.1158 23.9824 100.68L21.0605 107.992Z" fill="#E2EFFF"/>
<path d="M251.45 12.2233L261.128 19.8631C267.63 24.996 268.696 34.393 263.508 40.8518L254.947 51.5106C249.759 57.9694 240.282 59.0442 233.78 53.9113L224.102 46.2716L251.45 12.2233Z" fill="#BFDBFF"/>
<rect width="37.717" height="43.6712" rx="15" transform="matrix(0.784917 0.619601 -0.62622 0.779647 235.965 0)" fill="#E2EFFF"/>
<g filter="url(#filter3_d_858_946)">
<path d="M76.2842 175.012L92.6117 187.901C99.1142 193.034 100.18 202.431 94.9922 208.89L74.8188 234.006C69.631 240.465 60.1542 241.539 53.6517 236.406L37.3241 223.518L76.2842 175.012Z" fill="#BFDBFF"/>
<rect width="49.4083" height="62.2144" rx="15" transform="matrix(0.784917 0.619601 -0.62622 0.779647 56 159)" fill="#E2EFFF"/>
</g>
<g filter="url(#filter4_d_858_946)">
<path d="M261.548 224.974L271.226 232.613C277.728 237.746 278.794 247.143 273.606 253.602L265.045 264.261C259.857 270.72 250.381 271.795 243.878 266.662L234.2 259.022L261.548 224.974Z" fill="#BFDBFF"/>
<rect width="37.717" height="43.6712" rx="15" transform="matrix(0.784917 0.619601 -0.62622 0.779647 246.063 212.75)" fill="white"/>
</g>
<g filter="url(#filter5_d_858_946)">
<path d="M110.088 250.644L119.766 258.283C126.269 263.416 127.335 272.813 122.147 279.272L113.586 289.931C108.398 296.39 98.9211 297.465 92.4186 292.332L82.7405 284.692L110.088 250.644Z" fill="#AFD2FF"/>
<rect width="37.717" height="43.6712" rx="15" transform="matrix(0.784917 0.619601 -0.62622 0.779647 94.6035 238.42)" fill="#E2EFFF"/>
</g>
<g filter="url(#filter6_d_858_946)">
<path d="M237.659 161.353L261.746 165.347C269.919 166.702 275.427 174.423 274.049 182.591L267.943 218.783C266.565 226.952 258.823 232.476 250.65 231.121L226.563 227.127L237.659 161.353Z" fill="#AFD2FF"/>
<rect width="54.3958" height="66.7031" rx="15" transform="matrix(0.986533 0.163562 -0.166348 0.986067 209.591 156.7)" fill="#E2EFFF"/>
</g>
<g filter="url(#filter7_d_858_946)">
<path d="M57.1211 215.774L72.4618 208.597C79.9654 205.086 88.935 208.304 92.4959 215.784L103.107 238.074C106.668 245.554 103.472 254.463 95.9685 257.974L80.6278 265.152L57.1211 215.774Z" fill="#BFDBFF"/>
<rect width="44.0745" height="54.6869" rx="15" transform="matrix(0.905766 -0.423779 0.429839 0.902906 36.2407 225.544)" fill="white"/>
</g>
<rect x="37" y="35" width="212" height="224" fill="url(#pattern0)"/>
<defs>
<filter id="filter0_d_858_946" x="2.10498" y="217.05" width="70.8726" height="69.8427" filterUnits="userSpaceOnUse" color-interpolation-filters="sRGB">
<feFlood flood-opacity="0" result="BackgroundImageFix"/>
<feColorMatrix in="SourceAlpha" type="matrix" values="0 0 0 0 0 0 0 0 0 0 0 0 0 0 0 0 0 0 127 0" result="hardAlpha"/>
<feOffset dy="4"/>
<feGaussianBlur stdDeviation="2"/>
<feComposite in2="hardAlpha" operator="out"/>
<feColorMatrix type="matrix" values="0 0 0 0 0 0 0 0 0 0 0 0 0 0 0 0 0 0 0.1 0"/>
<feBlend mode="normal" in2="BackgroundImageFix" result="effect1_dropShadow_858_946"/>
<feBlend mode="normal" in="SourceGraphic" in2="effect1_dropShadow_858_946" result="shape"/>
</filter>
<filter id="filter1_d_858_946" x="133.723" y="181.749" width="112.256" height="111.355" filterUnits="userSpaceOnUse" color-interpolation-filters="sRGB">
<feFlood flood-opacity="0" result="BackgroundImageFix"/>
<feColorMatrix in="SourceAlpha" type="matrix" values="0 0 0 0 0 0 0 0 0 0 0 0 0 0 0 0 0 0 127 0" result="hardAlpha"/>
<feOffset dy="4"/>
<feGaussianBlur stdDeviation="2"/>
<feComposite in2="hardAlpha" operator="out"/>
<feColorMatrix type="matrix" values="0 0 0 0 0 0 0 0 0 0 0 0 0 0 0 0 0 0 0.15 0"/>
<feBlend mode="normal" in2="BackgroundImageFix" result="effect1_dropShadow_858_946"/>
<feBlend mode="normal" in="SourceGraphic" in2="effect1_dropShadow_858_946" result="shape"/>
</filter>
<filter id="filter2_d_858_946" x="82.6157" y="187.526" width="103.67" height="102.879" filterUnits="userSpaceOnUse" color-interpolation-filters="sRGB">
<feFlood flood-opacity="0" result="BackgroundImageFix"/>
<feColorMatrix in="SourceAlpha" type="matrix" values="0 0 0 0 0 0 0 0 0 0 0 0 0 0 0 0 0 0 127 0" result="hardAlpha"/>
<feOffset dy="4"/>
<feGaussianBlur stdDeviation="2"/>
<feComposite in2="hardAlpha" operator="out"/>
<feColorMatrix type="matrix" values="0 0 0 0 0 0 0 0 0 0 0 0 0 0 0 0 0 0 0.1 0"/>
<feBlend mode="normal" in2="BackgroundImageFix" result="effect1_dropShadow_858_946"/>
<feBlend mode="normal" in="SourceGraphic" in2="effect1_dropShadow_858_946" result="shape"/>
</filter>
<filter id="filter3_d_858_946" x="19.145" y="165.05" width="83.1357" height="82.6001" filterUnits="userSpaceOnUse" color-interpolation-filters="sRGB">
<feFlood flood-opacity="0" result="BackgroundImageFix"/>
<feColorMatrix in="SourceAlpha" type="matrix" values="0 0 0 0 0 0 0 0 0 0 0 0 0 0 0 0 0 0 127 0" result="hardAlpha"/>
<feOffset dy="4"/>
<feGaussianBlur stdDeviation="2"/>
<feComposite in2="hardAlpha" operator="out"/>
<feColorMatrix type="matrix" values="0 0 0 0 0 0 0 0 0 0 0 0 0 0 0 0 0 0 0.1 0"/>
<feBlend mode="normal" in2="BackgroundImageFix" result="effect1_dropShadow_858_946"/>
<feBlend mode="normal" in="SourceGraphic" in2="effect1_dropShadow_858_946" result="shape"/>
</filter>
<filter id="filter4_d_858_946" x="220.82" y="218.8" width="60.0752" height="59.1051" filterUnits="userSpaceOnUse" color-interpolation-filters="sRGB">
<feFlood flood-opacity="0" result="BackgroundImageFix"/>
<feColorMatrix in="SourceAlpha" type="matrix" values="0 0 0 0 0 0 0 0 0 0 0 0 0 0 0 0 0 0 127 0" result="hardAlpha"/>
<feOffset dy="4"/>
<feGaussianBlur stdDeviation="2"/>
<feComposite in2="hardAlpha" operator="out"/>
<feColorMatrix type="matrix" values="0 0 0 0 0 0 0 0 0 0 0 0 0 0 0 0 0 0 0.15 0"/>
<feBlend mode="normal" in2="BackgroundImageFix" result="effect1_dropShadow_858_946"/>
<feBlend mode="normal" in="SourceGraphic" in2="effect1_dropShadow_858_946" result="shape"/>
</filter>
<filter id="filter5_d_858_946" x="69.3604" y="244.471" width="60.0752" height="59.1051" filterUnits="userSpaceOnUse" color-interpolation-filters="sRGB">
<feFlood flood-opacity="0" result="BackgroundImageFix"/>
<feColorMatrix in="SourceAlpha" type="matrix" values="0 0 0 0 0 0 0 0 0 0 0 0 0 0 0 0 0 0 127 0" result="hardAlpha"/>
<feOffset dy="4"/>
<feGaussianBlur stdDeviation="2"/>
<feComposite in2="hardAlpha" operator="out"/>
<feColorMatrix type="matrix" values="0 0 0 0 0 0 0 0 0 0 0 0 0 0 0 0 0 0 0.15 0"/>
<feBlend mode="normal" in2="BackgroundImageFix" result="effect1_dropShadow_858_946"/>
<feBlend mode="normal" in="SourceGraphic" in2="effect1_dropShadow_858_946" result="shape"/>
</filter>
<filter id="filter6_d_858_946" x="200.779" y="158.949" width="81.481" height="80.3765" filterUnits="userSpaceOnUse" color-interpolation-filters="sRGB">
<feFlood flood-opacity="0" result="BackgroundImageFix"/>
<feColorMatrix in="SourceAlpha" type="matrix" values="0 0 0 0 0 0 0 0 0 0 0 0 0 0 0 0 0 0 127 0" result="hardAlpha"/>
<feOffset dx="4" dy="4"/>
<feGaussianBlur stdDeviation="2"/>
<feComposite in2="hardAlpha" operator="out"/>
<feColorMatrix type="matrix" values="0 0 0 0 0 0 0 0 0 0 0 0 0 0 0 0 0 0 0.1 0"/>
<feBlend mode="normal" in2="BackgroundImageFix" result="effect1_dropShadow_858_946"/>
<feBlend mode="normal" in="SourceGraphic" in2="effect1_dropShadow_858_946" result="shape"/>
</filter>
<filter id="filter7_d_858_946" x="37.2324" y="207.176" width="71.3306" height="70.8096" filterUnits="userSpaceOnUse" color-interpolation-filters="sRGB">
<feFlood flood-opacity="0" result="BackgroundImageFix"/>
<feColorMatrix in="SourceAlpha" type="matrix" values="0 0 0 0 0 0 0 0 0 0 0 0 0 0 0 0 0 0 127 0" result="hardAlpha"/>
<feOffset dy="4"/>
<feGaussianBlur stdDeviation="2"/>
<feComposite in2="hardAlpha" operator="out"/>
<feColorMatrix type="matrix" values="0 0 0 0 0 0 0 0 0 0 0 0 0 0 0 0 0 0 0.1 0"/>
<feBlend mode="normal" in2="BackgroundImageFix" result="effect1_dropShadow_858_946"/>
<feBlend mode="normal" in="SourceGraphic" in2="effect1_dropShadow_858_946" result="shape"/>
</filter>
<pattern id="pattern0" patternContentUnits="objectBoundingBox" width="1" height="1">
<use xlink:href="#image0_858_946" transform="matrix(0.000973828 0 0 0.000921659 -0.0258673 0)"/>
</pattern>
</defs>
</svg>
