<svg width="165" height="172" viewBox="0 0 165 172" fill="none" xmlns="http://www.w3.org/2000/svg">
<g filter="url(#filter0_d_3046_2448)">
<rect x="4" y="4" width="156.478" height="164" rx="25" fill="#F2F3F8"/>
</g>
<path d="M117.649 4H135.478C149.286 4 160.478 15.1929 160.478 29V86H97.0205C93.6019 86 91.1915 82.6459 92.2815 79.4057L117.649 4Z" fill="#AEEA8A"/>
<path d="M4 29C4 15.1929 15.1929 4 29 4H106.233L79.9334 82.5868C79.2511 84.6256 77.3419 86 75.1919 86H4V29Z" fill="#AEEA8A"/>
<path d="M45.6104 99.3739C46.3047 97.3553 48.2039 96 50.3386 96H161V142L38.1014 141.527C34.6768 141.514 32.2787 138.139 33.3924 134.901L45.6104 99.3739Z" fill="#AEEA8A"/>
<path d="M4 96H29.3697C32.7917 96 35.2024 99.3602 34.1061 102.602L21.931 138.602C21.2441 140.633 19.3386 142 17.1945 142H4V96Z" fill="#AEEA8A"/>
<g filter="url(#filter1_d_3046_2448)">
<circle cx="60.5" cy="108.5" r="16.75" fill="white" stroke="#FFB120" stroke-width="1.5"/>
</g>
<mask id="path-7-inside-1_3046_2448" fill="white">
<path fill-rule="evenodd" clip-rule="evenodd" d="M53.4223 124.51C53.3536 124.092 53.2852 123.623 53.2083 123.096L51.0208 108.162H69.9791L67.7946 123.094L67.7938 123.099C67.7169 123.625 67.6485 124.092 67.5797 124.509C65.4151 125.467 63.0197 126 60.5 126C57.981 126 55.5864 125.468 53.4223 124.51Z"/>
</mask>
<path fill-rule="evenodd" clip-rule="evenodd" d="M53.4223 124.51C53.3536 124.092 53.2852 123.623 53.2083 123.096L51.0208 108.162H69.9791L67.7946 123.094L67.7938 123.099C67.7169 123.625 67.6485 124.092 67.5797 124.509C65.4151 125.467 63.0197 126 60.5 126C57.981 126 55.5864 125.468 53.4223 124.51Z" fill="white"/>
<path d="M53.2083 123.096L54.1978 122.951L54.1978 122.951L53.2083 123.096ZM53.4223 124.51L52.4356 124.672L52.5233 125.205L53.0175 125.424L53.4223 124.51ZM51.0208 108.162V107.162H49.8637L50.0314 108.307L51.0208 108.162ZM69.9791 108.162L70.9686 108.307L71.1361 107.162H69.9791V108.162ZM67.7946 123.094L68.784 123.239L68.784 123.239L67.7946 123.094ZM67.7938 123.099L68.7833 123.244L68.7833 123.244L67.7938 123.099ZM67.5797 124.509L67.9846 125.423L68.4784 125.204L68.5663 124.672L67.5797 124.509ZM52.2188 123.24C52.2953 123.765 52.365 124.243 52.4356 124.672L54.4091 124.347C54.3421 123.94 54.2751 123.481 54.1978 122.951L52.2188 123.24ZM50.0314 108.307L52.2189 123.241L54.1978 122.951L52.0103 108.018L50.0314 108.307ZM69.9791 107.162H51.0208V109.162H69.9791V107.162ZM68.784 123.239L70.9686 108.307L68.9897 108.018L66.8051 122.95L68.784 123.239ZM68.7833 123.244L68.784 123.239L66.8051 122.949L66.8044 122.955L68.7833 123.244ZM68.5663 124.672C68.6369 124.244 68.7067 123.767 68.7833 123.244L66.8044 122.955C66.7271 123.482 66.66 123.94 66.593 124.346L68.5663 124.672ZM67.1747 123.594C65.1352 124.498 62.8776 125 60.5 125V127C63.1619 127 65.695 126.437 67.9846 125.423L67.1747 123.594ZM60.5 125C58.1231 125 55.8662 124.498 53.8272 123.595L53.0175 125.424C55.3066 126.438 57.8389 127 60.5 127V125Z" fill="#FFB120" mask="url(#path-7-inside-1_3046_2448)"/>
<path d="M52.8729 120.792H68.1315L69.199 113.5H51.804L52.8729 120.792Z" fill="#FFB120"/>
<path d="M63.9418 101.25H57.057C54.8106 101.25 53.6868 101.25 52.8027 101.863C52.6505 101.969 52.5054 102.088 52.3686 102.218C51.5737 102.97 51.2166 104.172 50.5061 106.58L50.4621 106.727C50.072 108.045 49.8776 108.705 50.083 109.204C50.1482 109.361 50.2391 109.503 50.3508 109.622C50.7042 110 51.3206 110 52.552 110H68.4492C69.6807 110 70.2958 110 70.6504 109.622C70.7605 109.503 70.8522 109.36 70.917 109.204C71.1224 108.705 70.928 108.045 70.5379 106.727L70.4939 106.58C69.7834 104.172 69.4275 102.97 68.6327 102.218C68.4954 102.088 68.3499 101.969 68.1973 101.863C67.3132 101.25 66.1894 101.25 63.9418 101.25Z" fill="#FFB120"/>
<g filter="url(#filter2_d_3046_2448)">
<circle cx="113.5" cy="51.5" r="17.5" fill="#056BF1"/>
</g>
<path d="M119.502 53.0004C119.502 56.3156 116.815 59.002 113.5 59.002C110.189 59.002 107.498 56.3156 107.498 53.0004C107.498 49.6852 110.185 46.9988 113.5 46.9988V49.9996L118.617 44.9998L113.5 40V43.0008C107.979 43.0008 103.5 47.4795 103.5 53.0004C103.5 58.5213 107.979 63 113.5 63C119.021 63 123.5 58.5213 123.5 53.0004H119.502Z" fill="white"/>
<defs>
<filter id="filter0_d_3046_2448" x="0" y="0" width="164.478" height="172" filterUnits="userSpaceOnUse" color-interpolation-filters="sRGB">
<feFlood flood-opacity="0" result="BackgroundImageFix"/>
<feColorMatrix in="SourceAlpha" type="matrix" values="0 0 0 0 0 0 0 0 0 0 0 0 0 0 0 0 0 0 127 0" result="hardAlpha"/>
<feOffset/>
<feGaussianBlur stdDeviation="2"/>
<feComposite in2="hardAlpha" operator="out"/>
<feColorMatrix type="matrix" values="0 0 0 0 0 0 0 0 0 0 0 0 0 0 0 0 0 0 0.15 0"/>
<feBlend mode="normal" in2="BackgroundImageFix" result="effect1_dropShadow_3046_2448"/>
<feBlend mode="normal" in="SourceGraphic" in2="effect1_dropShadow_3046_2448" result="shape"/>
</filter>
<filter id="filter1_d_3046_2448" x="39" y="87" width="43" height="43" filterUnits="userSpaceOnUse" color-interpolation-filters="sRGB">
<feFlood flood-opacity="0" result="BackgroundImageFix"/>
<feColorMatrix in="SourceAlpha" type="matrix" values="0 0 0 0 0 0 0 0 0 0 0 0 0 0 0 0 0 0 127 0" result="hardAlpha"/>
<feOffset/>
<feGaussianBlur stdDeviation="2"/>
<feComposite in2="hardAlpha" operator="out"/>
<feColorMatrix type="matrix" values="0 0 0 0 0 0 0 0 0 0 0 0 0 0 0 0 0 0 0.25 0"/>
<feBlend mode="normal" in2="BackgroundImageFix" result="effect1_dropShadow_3046_2448"/>
<feBlend mode="normal" in="SourceGraphic" in2="effect1_dropShadow_3046_2448" result="shape"/>
</filter>
<filter id="filter2_d_3046_2448" x="92" y="30" width="43" height="43" filterUnits="userSpaceOnUse" color-interpolation-filters="sRGB">
<feFlood flood-opacity="0" result="BackgroundImageFix"/>
<feColorMatrix in="SourceAlpha" type="matrix" values="0 0 0 0 0 0 0 0 0 0 0 0 0 0 0 0 0 0 127 0" result="hardAlpha"/>
<feOffset/>
<feGaussianBlur stdDeviation="2"/>
<feComposite in2="hardAlpha" operator="out"/>
<feColorMatrix type="matrix" values="0 0 0 0 0 0 0 0 0 0 0 0 0 0 0 0 0 0 0.35 0"/>
<feBlend mode="normal" in2="BackgroundImageFix" result="effect1_dropShadow_3046_2448"/>
<feBlend mode="normal" in="SourceGraphic" in2="effect1_dropShadow_3046_2448" result="shape"/>
</filter>
</defs>
</svg>
