<svg width="157" height="164" viewBox="0 0 157 164" fill="none" xmlns="http://www.w3.org/2000/svg">
<g style="mix-blend-mode:lighten">
<rect width="156.478" height="164" rx="25" fill="#F2F3F8"/>
</g>
<path d="M113.649 0H131.478C145.286 0 156.478 11.1929 156.478 25V82H93.0205C89.6019 82 87.1915 78.6459 88.2815 75.4057L113.649 0Z" fill="#AEEA8A"/>
<path d="M0 25C0 11.1929 11.1929 0 25 0H102.233L75.9334 78.5868C75.2511 80.6256 73.3419 82 71.1919 82H0V25Z" fill="#AEEA8A"/>
<path d="M41.6104 95.3739C42.3047 93.3553 44.2039 92 46.3386 92H157V138L34.1014 137.527C30.6768 137.514 28.2787 134.139 29.3924 130.901L41.6104 95.3739Z" fill="#AEEA8A"/>
<path d="M0 92H25.3697C28.7917 92 31.2024 95.3602 30.1061 98.6019L17.931 134.602C17.2441 136.633 15.3386 138 13.1945 138H0V92Z" fill="#AEEA8A"/>
<g filter="url(#filter0_d_1_7)">
<circle cx="49.5" cy="69.5" r="16.75" fill="white" stroke="#FFB120" stroke-width="1.5"/>
</g>
<mask id="path-7-inside-1_1_7" fill="white">
<path fill-rule="evenodd" clip-rule="evenodd" d="M42.4223 85.5097C42.3536 85.0917 42.2852 84.623 42.2083 84.0958L40.0208 69.1625H58.9792L56.7946 84.0943L56.7938 84.0995C56.7169 84.6248 56.6485 85.092 56.5797 85.5088C54.4151 86.4675 52.0197 87 49.5 87C46.981 87 44.5864 86.4678 42.4223 85.5097Z"/>
</mask>
<path fill-rule="evenodd" clip-rule="evenodd" d="M42.4223 85.5097C42.3536 85.0917 42.2852 84.623 42.2083 84.0958L40.0208 69.1625H58.9792L56.7946 84.0943L56.7938 84.0995C56.7169 84.6248 56.6485 85.092 56.5797 85.5088C54.4151 86.4675 52.0197 87 49.5 87C46.981 87 44.5864 86.4678 42.4223 85.5097Z" fill="white"/>
<path d="M42.2083 84.0958L43.1979 83.9515L43.1978 83.9509L42.2083 84.0958ZM42.4223 85.5097L41.4356 85.672L41.5234 86.2053L42.0175 86.4241L42.4223 85.5097ZM40.0208 69.1625V68.1625H38.8637L39.0314 69.3074L40.0208 69.1625ZM58.9792 69.1625L59.9686 69.3072L60.1361 68.1625H58.9792V69.1625ZM56.7946 84.0943L57.784 84.2392L57.7841 84.2391L56.7946 84.0943ZM56.7938 84.0995L57.7833 84.2444L57.7833 84.2443L56.7938 84.0995ZM56.5797 85.5088L56.9846 86.4231L57.4784 86.2045L57.5663 85.6716L56.5797 85.5088ZM41.2188 84.2401C41.2953 84.7648 41.3651 85.2432 41.4356 85.672L43.4091 85.3474C43.3421 84.9402 43.2751 84.4812 43.1979 83.9515L41.2188 84.2401ZM39.0314 69.3074L41.2189 84.2407L43.1978 83.9509L41.0103 69.0175L39.0314 69.3074ZM58.9792 68.1625H40.0208V70.1625H58.9792V68.1625ZM57.7841 84.2391L59.9686 69.3072L57.9897 69.0177L55.8051 83.9496L57.7841 84.2391ZM57.7833 84.2443L57.784 84.2392L55.8051 83.9495L55.8044 83.9546L57.7833 84.2443ZM57.5663 85.6716C57.6369 85.2441 57.7067 84.7672 57.7833 84.2444L55.8044 83.9546C55.7271 84.4824 55.6601 84.9399 55.593 85.3459L57.5663 85.6716ZM56.1747 84.5945C54.1352 85.4977 51.8776 86 49.5 86V88C52.1619 88 54.695 87.4372 56.9846 86.4231L56.1747 84.5945ZM49.5 86C47.1231 86 44.8662 85.498 42.8272 84.5953L42.0175 86.4241C44.3066 87.4375 46.8389 88 49.5 88V86Z" fill="#FFB120" mask="url(#path-7-inside-1_1_7)"/>
<path d="M41.8729 81.7917H57.1315L58.199 74.5H40.804L41.8729 81.7917Z" fill="#FFB120"/>
<path d="M52.9418 62.25H46.057C43.8106 62.25 42.6868 62.25 41.8027 62.8629C41.6505 62.969 41.5054 63.0876 41.3686 63.2176C40.5737 63.9699 40.2166 65.1722 39.5061 67.5795L39.4621 67.7272C39.072 69.0454 38.8776 69.7052 39.083 70.2035C39.1482 70.3607 39.2391 70.5026 39.3508 70.6218C39.7042 71 40.3206 71 41.552 71H57.4492C58.6807 71 59.2958 71 59.6504 70.6218C59.7605 70.5031 59.8522 70.3595 59.917 70.2035C60.1224 69.7052 59.928 69.0454 59.5379 67.7272L59.4939 67.5795C58.7834 65.1722 58.4275 63.9699 57.6327 63.2176C57.4954 63.0875 57.3499 62.969 57.1973 62.8629C56.3132 62.25 55.1894 62.25 52.9418 62.25Z" fill="#FFB120"/>
<g filter="url(#filter1_d_1_7)">
<circle cx="103.5" cy="49.5" r="17.5" fill="#056BF1"/>
</g>
<rect width="23" height="23" transform="translate(92 38)" fill="#056BF1"/>
<path d="M109.502 51.0004C109.502 54.3156 106.815 57.002 103.5 57.002C100.189 57.002 97.4984 54.3156 97.4984 51.0004C97.4984 47.6852 100.185 44.9988 103.5 44.9988V47.9996L108.617 42.9998L103.5 38V41.0008C97.9791 41.0008 93.5004 45.4795 93.5004 51.0004C93.5004 56.5213 97.9791 61 103.5 61C109.021 61 113.5 56.5213 113.5 51.0004H109.502Z" fill="white"/>
<defs>
<filter id="filter0_d_1_7" x="28" y="48" width="43" height="43" filterUnits="userSpaceOnUse" color-interpolation-filters="sRGB">
<feFlood flood-opacity="0" result="BackgroundImageFix"/>
<feColorMatrix in="SourceAlpha" type="matrix" values="0 0 0 0 0 0 0 0 0 0 0 0 0 0 0 0 0 0 127 0" result="hardAlpha"/>
<feOffset/>
<feGaussianBlur stdDeviation="2"/>
<feComposite in2="hardAlpha" operator="out"/>
<feColorMatrix type="matrix" values="0 0 0 0 0 0 0 0 0 0 0 0 0 0 0 0 0 0 0.25 0"/>
<feBlend mode="normal" in2="BackgroundImageFix" result="effect1_dropShadow_1_7"/>
<feBlend mode="normal" in="SourceGraphic" in2="effect1_dropShadow_1_7" result="shape"/>
</filter>
<filter id="filter1_d_1_7" x="82" y="28" width="43" height="43" filterUnits="userSpaceOnUse" color-interpolation-filters="sRGB">
<feFlood flood-opacity="0" result="BackgroundImageFix"/>
<feColorMatrix in="SourceAlpha" type="matrix" values="0 0 0 0 0 0 0 0 0 0 0 0 0 0 0 0 0 0 127 0" result="hardAlpha"/>
<feOffset/>
<feGaussianBlur stdDeviation="2"/>
<feComposite in2="hardAlpha" operator="out"/>
<feColorMatrix type="matrix" values="0 0 0 0 0 0 0 0 0 0 0 0 0 0 0 0 0 0 0.25 0"/>
<feBlend mode="normal" in2="BackgroundImageFix" result="effect1_dropShadow_1_7"/>
<feBlend mode="normal" in="SourceGraphic" in2="effect1_dropShadow_1_7" result="shape"/>
</filter>
</defs>
</svg>
