<svg width="20" height="20" viewBox="0 0 20 20" fill="none" xmlns="http://www.w3.org/2000/svg">
<path d="M5.89448 6.94678V12.3681H1.96538C1.34026 12.3681 0.833496 11.8613 0.833496 11.2362V8.0787C0.833496 7.45358 1.34026 6.94682 1.96538 6.94682H5.89448V6.94678Z" fill="#48EB93"/>
<path d="M16.3692 15.8327C16.3692 15.8327 12.3473 12.3679 5.89404 12.3679V6.94665C12.3473 6.94665 16.3692 3.48193 16.3692 3.48193V15.8327Z" fill="#48EB93"/>
<path d="M17.3516 16.8146C16.8093 16.8146 16.3696 16.3749 16.3696 15.8326V3.48197C16.3696 2.93964 16.8093 2.5 17.3516 2.5C17.8939 2.5 18.3336 2.93964 18.3336 3.48197V15.8326C18.3336 16.375 17.8939 16.8146 17.3516 16.8146Z" fill="#63C590"/>
<path d="M7.78898 6.8457C7.18354 6.91031 6.55166 6.94681 5.89404 6.94681V12.3681C6.55166 12.3681 7.18354 12.4046 7.78898 12.4692V6.8457Z" fill="#63C590"/>
<path d="M3.84131 12.4554C3.84131 12.3557 3.9221 12.2749 4.02177 12.2749H5.91658C6.01625 12.2749 6.09704 12.3557 6.09704 12.4554V15.854C6.09704 15.9537 6.01625 16.0345 5.91658 16.0345H4.02177C3.9221 16.0345 3.84131 15.9537 3.84131 15.854V12.4554Z" fill="#724F5B"/>
</svg>
