<svg width="20" height="20" viewBox="0 0 20 20" fill="none" xmlns="http://www.w3.org/2000/svg">
<path d="M0.81928 17.1998C0.491828 18.1166 1.37712 19.0019 2.29399 18.6745L11.9149 15.2384C12.7126 14.9536 12.9416 13.9349 12.3427 13.3359L6.15782 7.15109C5.55886 6.55213 4.5402 6.78119 4.2553 7.5789L0.81928 17.1998Z" fill="#FFB120"/>
<path d="M11.227 11.2854L16.67 5.84234C17.1471 5.36523 17.9163 5.36523 18.3935 5.84234L18.9679 6.41683L20.0001 5.3847L19.4256 4.81021C18.3837 3.76834 16.6797 3.76834 15.6379 4.81021L10.1948 10.2532L11.227 11.2854Z" fill="#C26DE0"/>
<path d="M6.87429 5.78419L6.2998 6.35868L7.33194 7.39081L7.90643 6.81632C8.94829 5.77445 8.94829 4.07046 7.90643 3.02859L7.33194 2.4541L6.2998 3.49597L6.87429 4.07046C7.34167 4.53784 7.34167 5.31681 6.87429 5.78419Z" fill="#7CD1D7"/>
<path d="M13.6903 10.6525L12.1421 12.2007L13.1742 13.2328L14.7224 11.6846C15.1995 11.2075 15.9688 11.2075 16.4459 11.6846L18.0136 13.2523L19.0457 12.2202L17.478 10.6525C16.4264 9.61063 14.7322 9.61063 13.6903 10.6525Z" fill="#F95EA8"/>
<path d="M11.7432 4.81015L8.24756 8.30576L9.27969 9.3379L12.7753 5.84228C13.8172 4.80041 13.8172 3.09642 12.7753 2.05455L11.2271 0.506348L10.195 1.53848L11.7432 3.08668C12.2106 3.5638 12.2106 4.34276 11.7432 4.81015Z" fill="#82DA2B"/>
</svg>
