<svg width="41" height="45" viewBox="0 0 41 45" fill="none" xmlns="http://www.w3.org/2000/svg">
<g filter="url(#filter0_d_3128_1958)">
<path d="M21.4985 40.0654L19.3369 36.2815L23.6315 36.2653L21.4985 40.0654Z" fill="#056BF1"/>
<circle cx="21.5" cy="19.5" r="17.5" fill="#056BF1"/>
<path d="M27.5016 20.0004C27.5016 23.3156 24.8152 26.002 21.5 26.002C18.1893 26.002 15.4984 23.3156 15.4984 20.0004C15.4984 16.6852 18.1848 13.9988 21.5 13.9988V16.9996L26.6166 11.9998L21.5 7V10.0008C15.9791 10.0008 11.5004 14.4795 11.5004 20.0004C11.5004 25.5213 15.9791 30 21.5 30C27.0209 30 31.4996 25.5213 31.4996 20.0004H27.5016Z" fill="white"/>
</g>
<defs>
<filter id="filter0_d_3128_1958" x="0" y="0" width="41" height="44.0654" filterUnits="userSpaceOnUse" color-interpolation-filters="sRGB">
<feFlood flood-opacity="0" result="BackgroundImageFix"/>
<feColorMatrix in="SourceAlpha" type="matrix" values="0 0 0 0 0 0 0 0 0 0 0 0 0 0 0 0 0 0 127 0" result="hardAlpha"/>
<feOffset dx="-1" dy="1"/>
<feGaussianBlur stdDeviation="1.5"/>
<feComposite in2="hardAlpha" operator="out"/>
<feColorMatrix type="matrix" values="0 0 0 0 0 0 0 0 0 0 0 0 0 0 0 0 0 0 0.25 0"/>
<feBlend mode="normal" in2="BackgroundImageFix" result="effect1_dropShadow_3128_1958"/>
<feBlend mode="normal" in="SourceGraphic" in2="effect1_dropShadow_3128_1958" result="shape"/>
</filter>
</defs>
</svg>
