<svg width="43" height="47" viewBox="0 0 43 47" fill="none" xmlns="http://www.w3.org/2000/svg">
<g filter="url(#filter0_d_3128_1964)">
<circle cx="22.5" cy="20.5" r="16.5" fill="white" stroke="#FFB120" stroke-width="2"/>
<path d="M22.556 41.1175L20.3944 37.3336L24.6889 37.3174L22.556 41.1175Z" fill="#FFB120"/>
</g>
<mask id="path-3-inside-1_3128_1964" fill="white">
<path fill-rule="evenodd" clip-rule="evenodd" d="M15.4223 35.4261C15.3536 34.9847 15.2852 34.4897 15.2083 33.933L13.0208 18.1625H31.9791L29.7946 33.9315L29.7938 33.9369C29.7169 34.4916 29.6485 34.985 29.5797 35.4252C27.4151 36.4376 25.0197 37 22.5 37C19.981 37 17.5864 36.438 15.4223 35.4261Z"/>
</mask>
<path d="M15.2083 33.933L16.8923 33.7004L16.8922 33.6994L15.2083 33.933ZM15.4223 35.4261L13.7426 35.6878L13.882 36.5826L14.7023 36.9661L15.4223 35.4261ZM13.0208 18.1625V16.4625H11.0687L11.3369 18.396L13.0208 18.1625ZM31.9791 18.1625L33.6631 18.3958L33.9309 16.4625H31.9791V18.1625ZM29.7946 33.9315L31.4785 34.1648L31.4785 34.1647L29.7946 33.9315ZM29.7938 33.9369L31.4777 34.1704L31.4777 34.1702L29.7938 33.9369ZM29.5797 35.4252L30.2999 36.9651L31.1196 36.5817L31.2593 35.6877L29.5797 35.4252ZM13.5243 34.1655C13.6006 34.7182 13.6711 35.2289 13.7426 35.6878L17.1021 35.1644C17.036 34.7405 16.9698 34.2612 16.8923 33.7004L13.5243 34.1655ZM11.3369 18.396L13.5244 34.1666L16.8922 33.6994L14.7047 17.9289L11.3369 18.396ZM31.9791 16.4625H13.0208V19.8625H31.9791V16.4625ZM31.4785 34.1647L33.6631 18.3958L30.2952 17.9292L28.1106 33.6982L31.4785 34.1647ZM31.4777 34.1702L31.4785 34.1648L28.1107 33.6981L28.1099 33.7036L31.4777 34.1702ZM31.2593 35.6877C31.3308 35.2302 31.4013 34.7211 31.4777 34.1704L28.1099 33.7034C28.0324 34.2622 27.9661 34.7399 27.9001 35.1627L31.2593 35.6877ZM28.8594 33.8853C26.9138 34.7953 24.7637 35.3 22.5 35.3V38.7C25.2758 38.7 27.9164 38.0799 30.2999 36.9651L28.8594 33.8853ZM22.5 35.3C20.237 35.3 18.0876 34.7956 16.1424 33.8862L14.7023 36.9661C17.0852 38.0803 19.7251 38.7 22.5 38.7V35.3Z" fill="#FFB120" mask="url(#path-3-inside-1_3128_1964)"/>
<path d="M14.8729 30.7917H30.1315L31.199 23.5H13.804L14.8729 30.7917Z" fill="#FFB120"/>
<path d="M25.9418 11.25H19.057C16.8106 11.25 15.6868 11.25 14.8027 11.8629C14.6505 11.969 14.5054 12.0876 14.3686 12.2176C13.5737 12.9699 13.2166 14.1722 12.5061 16.5795L12.4621 16.7272C12.072 18.0454 11.8776 18.7052 12.083 19.2035C12.1482 19.3607 12.2391 19.5026 12.3508 19.6218C12.7042 20 13.3206 20 14.552 20H30.4492C31.6807 20 32.2958 20 32.6504 19.6218C32.7605 19.5031 32.8522 19.3595 32.917 19.2035C33.1224 18.7052 32.928 18.0454 32.5379 16.7272L32.4939 16.5795C31.7834 14.1722 31.4275 12.9699 30.6327 12.2176C30.4954 12.0875 30.3499 11.969 30.1973 11.8629C29.3132 11.25 28.1894 11.25 25.9418 11.25Z" fill="#FFB120"/>
<defs>
<filter id="filter0_d_3128_1964" x="0" y="0" width="43" height="46.1176" filterUnits="userSpaceOnUse" color-interpolation-filters="sRGB">
<feFlood flood-opacity="0" result="BackgroundImageFix"/>
<feColorMatrix in="SourceAlpha" type="matrix" values="0 0 0 0 0 0 0 0 0 0 0 0 0 0 0 0 0 0 127 0" result="hardAlpha"/>
<feOffset dx="-1" dy="1"/>
<feGaussianBlur stdDeviation="2"/>
<feComposite in2="hardAlpha" operator="out"/>
<feColorMatrix type="matrix" values="0 0 0 0 0 0 0 0 0 0 0 0 0 0 0 0 0 0 0.25 0"/>
<feBlend mode="normal" in2="BackgroundImageFix" result="effect1_dropShadow_3128_1964"/>
<feBlend mode="normal" in="SourceGraphic" in2="effect1_dropShadow_3128_1964" result="shape"/>
</filter>
</defs>
</svg>
