<svg xmlns="http://www.w3.org/2000/svg" xmlns:xlink="http://www.w3.org/1999/xlink" width="324" zoomAndPan="magnify" viewBox="0 0 242.87999 278.999983" height="372" preserveAspectRatio="xMidYMid meet" version="1.0"><defs><clipPath id="9631b37241"><path d="M 0 0.605469 L 242.761719 0.605469 L 242.761719 243.484375 L 0 243.484375 Z M 0 0.605469 " clip-rule="nonzero"/></clipPath><clipPath id="8c27f10ce9"><path d="M 121.441406 0.605469 C 54.371094 0.605469 0 54.976562 0 122.046875 C 0 189.113281 54.371094 243.484375 121.441406 243.484375 C 188.507812 243.484375 242.878906 189.113281 242.878906 122.046875 C 242.878906 54.976562 188.507812 0.605469 121.441406 0.605469 Z M 121.441406 0.605469 " clip-rule="nonzero"/></clipPath><clipPath id="33974e0230"><path d="M 91.101562 225.707031 L 151.769531 225.707031 L 151.769531 278.789062 L 91.101562 278.789062 Z M 91.101562 225.707031 " clip-rule="nonzero"/></clipPath><clipPath id="44efff722a"><path d="M 121.433594 278.789062 L 91.101562 225.707031 L 151.769531 225.707031 Z M 121.433594 278.789062 " clip-rule="nonzero"/></clipPath></defs><g clip-path="url(#9631b37241)"><g clip-path="url(#8c27f10ce9)"><path fill="#ffb120" d="M 0 0.605469 L 242.878906 0.605469 L 242.878906 243.484375 L 0 243.484375 Z M 0 0.605469 " fill-opacity="1" fill-rule="nonzero"/></g></g><g clip-path="url(#33974e0230)"><g clip-path="url(#44efff722a)"><path fill="#ffb120" d="M 151.769531 278.789062 L 91.101562 278.789062 L 91.101562 225.707031 L 151.769531 225.707031 Z M 151.769531 278.789062 " fill-opacity="1" fill-rule="nonzero"/></g></g><path stroke-linecap="round" transform="matrix(5.684691, 0, 0, 5.684691, 53.198373, 54.214416)" fill="none" stroke-linejoin="round" d="M 3.000257 11.99982 C 3.000257 11.705032 3.014687 11.41093 3.043547 11.117516 C 3.072408 10.824789 3.115698 10.533437 3.172732 10.244145 C 3.230453 9.954854 3.301917 9.669686 3.387811 9.387266 C 3.473018 9.105534 3.571968 8.827924 3.685348 8.555812 C 3.798041 8.283699 3.92379 8.017084 4.062595 7.75734 C 4.201399 7.497597 4.35326 7.244724 4.516802 7.000098 C 4.680345 6.754785 4.855569 6.518404 5.043161 6.29027 C 5.230067 6.062822 5.42728 5.844308 5.636174 5.6361 C 5.844381 5.427893 6.062896 5.229993 6.290343 5.043088 C 6.518478 4.856182 6.754858 4.680271 7.000172 4.516729 C 7.244798 4.353187 7.49767 4.201326 7.757414 4.062521 C 8.017158 3.923716 8.283773 3.797967 8.555885 3.685274 C 8.827998 3.572581 9.105607 3.472944 9.38734 3.387737 C 9.669759 3.301843 9.954928 3.230379 10.244219 3.172659 C 10.53351 3.115625 10.824176 3.072334 11.11759 3.043474 C 11.411004 3.014613 11.705105 3.000183 11.999894 3.000183 C 12.623141 3.002245 13.240891 3.064088 13.85177 3.18434 C 14.463335 3.305279 15.057722 3.483251 15.634931 3.717571 C 16.212826 3.952577 16.762548 4.239806 17.284784 4.579947 C 17.80702 4.920087 18.292149 5.306954 18.740173 5.73986 L 21.000218 7.999905 " stroke="#ffffff" stroke-width="2" stroke-opacity="1" stroke-miterlimit="4"/><path stroke-linecap="round" transform="matrix(5.684691, 0, 0, 5.684691, 53.198373, 54.214416)" fill="none" stroke-linejoin="round" d="M 21.000218 3.000183 L 21.000218 7.999905 L 15.999809 7.999905 " stroke="#ffffff" stroke-width="2" stroke-opacity="1" stroke-miterlimit="4"/><path stroke-linecap="round" transform="matrix(5.684691, 0, 0, 5.684691, 53.198373, 54.214416)" fill="none" stroke-linejoin="round" d="M 21.000218 11.99982 C 21.000218 12.294609 20.985787 12.58871 20.956927 12.882124 C 20.928067 13.175538 20.884776 13.466891 20.827055 13.755495 C 20.769334 14.044786 20.69787 14.330641 20.612664 14.612374 C 20.52677 14.894794 20.42782 15.171716 20.315127 15.443829 C 20.202434 15.716628 20.075997 15.982556 19.937193 16.2423 C 19.798388 16.502731 19.647214 16.754916 19.482985 17.000229 C 19.319442 17.245543 19.144219 17.481923 18.957313 17.709371 C 18.770408 17.937505 18.572508 18.155333 18.3643 18.364227 C 18.155406 18.572434 17.937579 18.770334 17.709444 18.95724 C 17.481997 19.144145 17.244929 19.319369 17.000303 19.482911 C 16.754989 19.647141 16.502804 19.798314 16.242373 19.937119 C 15.98263 20.075924 15.716702 20.20236 15.443902 20.315053 C 15.17179 20.427746 14.894867 20.526696 14.612448 20.61259 C 14.330715 20.697797 14.04486 20.769261 13.755568 20.826982 C 13.466964 20.884702 13.175612 20.927993 12.882198 20.956853 C 12.588783 20.985714 12.294682 21.000144 11.999894 21.000144 C 11.376646 20.997395 10.759583 20.936239 10.148018 20.8153 C 9.536452 20.694361 8.942065 20.517076 8.364857 20.28207 C 7.787649 20.047751 7.237927 19.759834 6.715691 19.419693 C 6.193455 19.079553 5.708325 18.693373 5.260302 18.25978 L 3.000257 15.999735 " stroke="#ffffff" stroke-width="2" stroke-opacity="1" stroke-miterlimit="4"/><path stroke-linecap="round" transform="matrix(5.684691, 0, 0, 5.684691, 53.198373, 54.214416)" fill="none" stroke-linejoin="round" d="M 7.999979 15.999735 L 3.000257 15.999735 L 3.000257 21.000144 " stroke="#ffffff" stroke-width="2" stroke-opacity="1" stroke-miterlimit="4"/></svg>