<svg xmlns="http://www.w3.org/2000/svg" xmlns:xlink="http://www.w3.org/1999/xlink" width="324" zoomAndPan="magnify" viewBox="0 0 242.87999 278.999983" height="372" preserveAspectRatio="xMidYMid meet" version="1.0"><defs><clipPath id="7efa6fb0eb"><path d="M 0 0.605469 L 242.761719 0.605469 L 242.761719 243.484375 L 0 243.484375 Z M 0 0.605469 " clip-rule="nonzero"/></clipPath><clipPath id="cb1cd86df9"><path d="M 121.441406 0.605469 C 54.371094 0.605469 0 54.976562 0 122.046875 C 0 189.113281 54.371094 243.484375 121.441406 243.484375 C 188.507812 243.484375 242.878906 189.113281 242.878906 122.046875 C 242.878906 54.976562 188.507812 0.605469 121.441406 0.605469 Z M 121.441406 0.605469 " clip-rule="nonzero"/></clipPath><clipPath id="ef885b35d7"><path d="M 91.101562 225.707031 L 151.769531 225.707031 L 151.769531 278.789062 L 91.101562 278.789062 Z M 91.101562 225.707031 " clip-rule="nonzero"/></clipPath><clipPath id="9029d13c96"><path d="M 121.433594 278.789062 L 91.101562 225.707031 L 151.769531 225.707031 Z M 121.433594 278.789062 " clip-rule="nonzero"/></clipPath></defs><g clip-path="url(#7efa6fb0eb)"><g clip-path="url(#cb1cd86df9)"><path fill="#056bf1" d="M 0 0.605469 L 242.878906 0.605469 L 242.878906 243.484375 L 0 243.484375 Z M 0 0.605469 " fill-opacity="1" fill-rule="nonzero"/></g></g><g clip-path="url(#ef885b35d7)"><g clip-path="url(#9029d13c96)"><path fill="#056bf1" d="M 151.769531 278.789062 L 91.101562 278.789062 L 91.101562 225.707031 L 151.769531 225.707031 Z M 151.769531 278.789062 " fill-opacity="1" fill-rule="nonzero"/></g></g><path stroke-linecap="round" transform="matrix(6.590493, 0, 0, 6.590493, 42.400037, 43.005808)" fill="none" stroke-linejoin="round" d="M 5.999759 8.000109 L 7.750031 20.279871 C 7.766627 20.399006 7.794484 20.51577 7.832418 20.630163 C 7.869759 20.744556 7.917768 20.854207 7.975854 20.959709 C 8.033346 21.065212 8.100323 21.164787 8.175597 21.258435 C 8.251464 21.352083 8.335036 21.438026 8.426313 21.516264 C 8.51759 21.595094 8.614795 21.664441 8.719112 21.72549 C 8.822836 21.78654 8.931302 21.837513 9.043917 21.87841 C 9.157124 21.919899 9.272703 21.95072 9.391837 21.971465 C 9.510379 21.991617 9.629514 22.0011 9.749834 21.999915 L 14.289991 21.999915 C 14.410312 22.0011 14.530039 21.991617 14.648581 21.971465 C 14.767123 21.95072 14.882701 21.919899 14.995909 21.87841 C 15.109116 21.837513 15.217582 21.78654 15.321307 21.72549 C 15.425031 21.664441 15.522235 21.595094 15.613513 21.516264 C 15.70479 21.438026 15.788362 21.352083 15.864229 21.258435 C 15.940096 21.164787 16.006479 21.065212 16.064565 20.959709 C 16.122058 20.854207 16.170067 20.744556 16.208001 20.630163 C 16.245934 20.51577 16.273199 20.399006 16.289794 20.279871 L 17.999762 8.000109 " stroke="#ffffff" stroke-width="2" stroke-opacity="1" stroke-miterlimit="4"/><path stroke-linecap="round" transform="matrix(6.590493, 0, 0, 6.590493, 42.400037, 43.005808)" fill="none" stroke-linejoin="round" d="M 4.999858 8.000109 L 19.000257 8.000109 " stroke="#ffffff" stroke-width="2" stroke-opacity="1" stroke-miterlimit="4"/><path stroke-linecap="round" transform="matrix(6.590493, 0, 0, 6.590493, 42.400037, 43.005808)" fill="none" stroke-linejoin="round" d="M 7.000253 15.000012 C 7.395591 14.834053 7.803968 14.708991 8.224792 14.624234 C 8.645616 14.540069 9.070589 14.497394 9.499711 14.497394 C 9.929425 14.497394 10.354398 14.540069 10.775222 14.624234 C 11.196046 14.708991 11.604423 14.834053 11.999761 15.000012 C 12.395691 15.165971 12.804068 15.291032 13.224892 15.37579 C 13.645716 15.459955 14.070689 15.50263 14.499811 15.50263 C 14.928933 15.50263 15.354498 15.459955 15.77473 15.37579 C 16.195554 15.291032 16.603931 15.165971 16.999861 15.000012 " stroke="#ffffff" stroke-width="2" stroke-opacity="1" stroke-miterlimit="4"/><path stroke-linecap="round" transform="matrix(6.590493, 0, 0, 6.590493, 42.400037, 43.005808)" fill="none" stroke-linejoin="round" d="M 11.999761 8.000109 L 13.000255 2.000107 L 15.000058 2.000107 " stroke="#ffffff" stroke-width="2" stroke-opacity="1" stroke-miterlimit="4"/></svg>