<svg width="78" height="74" viewBox="0 0 78 74" fill="none" xmlns="http://www.w3.org/2000/svg">
<path d="M42.8392 57.9054H47.9565V62.6552H42.8392V57.9054ZM54.1439 42.2849H42.8392V37.535H54.1439V42.2849ZM17.019 36.4648H11.9018V31.7149H17.019V36.4648ZM23.2065 37.535V42.2849H18.0893V37.535H23.2065ZM36.6518 56.8351V43.3551H41.769V56.8351H36.6518ZM35.5815 42.2849H30.4643V36.9999V36.4648H29.9291H24.2768V31.7149H41.769V36.4648H36.1166H35.5815V36.9999V42.2849ZM16.0073 14.6394H15.4722V15.1745V23.9047V24.4398H16.0073H25.2885H25.8237V23.9047V15.1745V14.6394H25.2885H16.0073ZM16.0073 49.56H15.4722V50.0951V58.8253V59.3604H16.0073H25.2885H25.8237V58.8253V50.0951V49.56H25.2885H16.0073ZM53.1322 14.6394H52.5971V15.1745V23.9047V24.4398H53.1322H62.4134H62.9486V23.9047V15.1745V14.6394H62.4134H53.1322ZM60.3314 57.3702V57.9054H60.8666H66.5189V62.6552H55.2142V54.4602V53.9251H54.6791H49.0267V49.1752H60.3314V57.3702ZM38.6752 22.4496V22.9848H39.2104H44.8627V27.7346H33.558V17.1647H38.6752V22.4496ZM61.4017 37.535H66.5189V48.105H61.4017V37.535ZM55.2142 36.4648V31.7149H60.3314V36.4648H55.2142ZM44.8627 11.3446V16.0944H39.7455V11.3446H44.8627ZM29.394 27.7346H11.9018V11.3446H29.394V27.7346ZM29.394 62.6552H11.9018V46.2652H29.394V62.6552ZM66.5189 27.7346H49.0267V11.3446H66.5189V27.7346ZM18.8628 17.8922H22.4331V21.187H18.8628V17.8922ZM18.8628 52.8128H22.4331V56.1076H18.8628V52.8128ZM55.9876 21.187V17.8922H59.558V21.187H55.9876Z" fill="white" stroke="white" stroke-width="1.07027"/>
<path d="M17.1875 2H6.37838C3.96027 2 2 3.96026 2 6.37838V16.2857" stroke="white" stroke-width="2.18919" stroke-linecap="round" stroke-linejoin="round"/>
<path d="M17.1875 72H6.37838C3.96027 72 2 70.0397 2 67.6216V57.7143" stroke="white" stroke-width="2.18919" stroke-linecap="round" stroke-linejoin="round"/>
<path d="M61.2305 2H72.0396C74.4577 2 76.418 3.96026 76.418 6.37838V16.2857" stroke="white" stroke-width="2.18919" stroke-linecap="round" stroke-linejoin="round"/>
<path d="M61.2305 72H72.0396C74.4577 72 76.418 70.0397 76.418 67.6216V57.7143" stroke="white" stroke-width="2.18919" stroke-linecap="round" stroke-linejoin="round"/>
</svg>
