<svg width="105" height="104" viewBox="0 0 105 104" fill="none" xmlns="http://www.w3.org/2000/svg">
<g id="Group 36822">
<path id="Vector" d="M56.7907 83.7057H64.9273V91.7908H56.7907V83.7057ZM73.7912 60.9478H56.7907V52.8626H73.7912V60.9478ZM20.6081 52.1355H12.4715V44.0503H20.6081V52.1355ZM29.472 52.8626V60.9478H21.3353V52.8626H29.472ZM47.9268 82.9785V61.675H56.0635V82.9785H47.9268ZM47.1997 60.9478H39.063V52.4991V52.1355H38.6994H30.1992V44.0503H56.0635V52.1355H47.5632H47.1997V52.4991V60.9478ZM18.7558 19.0893H18.3922V19.4529V32.6714V33.035H18.7558H32.0515H32.4151V32.6714V19.4529V19.0893H32.0515H18.7558ZM18.7558 71.9631H18.3922V72.3267V85.5452V85.9088H18.7558H32.0515H32.4151V85.5452V72.3267V71.9631H32.0515H18.7558ZM71.9388 19.0893H71.5752V19.4529V32.6714V33.035H71.9388H85.2345H85.5981V32.6714V19.4529V19.0893H85.2345H71.9388ZM82.655 83.3421V83.7057H83.0186H91.5188V91.7908H74.5183V78.936V78.5724H74.1548H65.6545V70.4873H82.655V83.3421ZM51.6316 30.4683V30.8319H51.9952H60.4954V38.917H43.4949V22.0196H51.6316V30.4683ZM83.3822 52.8626H91.5188V69.7601H83.3822V52.8626ZM74.5183 52.1355V44.0503H82.655V52.1355H74.5183ZM60.4954 13.2073V21.2924H52.3588V13.2073H60.4954ZM38.3358 38.917H12.4715V13.2073H38.3358V38.917ZM38.3358 91.7908H12.4715V66.0811H38.3358V91.7908ZM91.5188 38.917H65.6545V13.2073H91.5188V38.917ZM22.4433 23.1211H28.364V29.0032H22.4433V23.1211ZM22.4433 75.9949H28.364V81.877H22.4433V75.9949ZM75.6263 29.0032V23.1211H81.547V29.0032H75.6263Z" fill="#353535" stroke="#353535" stroke-width="0.72719"/>
<g id="Group 117">
<path id="Rectangle 216" d="M22.0206 0.796509H3.97487C2.33189 0.796509 1 2.12841 1 3.77138V21.6943" stroke="#353535" stroke-width="1.48743" stroke-linecap="round" stroke-linejoin="round"/>
<path id="Rectangle 218" d="M22.0206 103.198H3.97487C2.33189 103.198 1 101.866 1 100.223V82.2999" stroke="#353535" stroke-width="1.48743" stroke-linecap="round" stroke-linejoin="round"/>
<path id="Rectangle 217" d="M82.9794 0.796509H101.025C102.668 0.796509 104 2.12841 104 3.77138V21.6943" stroke="#353535" stroke-width="1.48743" stroke-linecap="round" stroke-linejoin="round"/>
<path id="Rectangle 219" d="M82.9794 103.198H101.025C102.668 103.198 104 101.866 104 100.223V82.2999" stroke="#353535" stroke-width="1.48743" stroke-linecap="round" stroke-linejoin="round"/>
</g>
</g>
</svg>
