<svg width="19" height="20" viewBox="0 0 19 20" fill="none" xmlns="http://www.w3.org/2000/svg">
<g id="Haruki Icons" clip-path="url(#clip0_858_1512)">
<path id="Union" d="M11.1961 2.87622C9.50061 2.47253 7.71668 2.68683 6.16499 3.48061C4.61331 4.27439 3.39562 5.59559 2.73079 7.20674C2.06596 8.8179 1.99759 10.6134 2.53797 12.2704C3.07835 13.9274 4.19203 15.3374 5.67886 16.2469C7.16569 17.1564 8.92816 17.5057 10.6495 17.2322C12.3708 16.9586 13.9381 16.08 15.0697 14.7544C16.2013 13.4287 16.823 11.7429 16.823 10C16.823 9.67209 17.0888 9.40626 17.4167 9.40626C17.7446 9.40626 18.0105 9.67209 18.0105 10C18.0105 12.0256 17.288 13.9847 15.9729 15.5253C14.6578 17.066 12.8363 18.087 10.8359 18.4049C8.83542 18.7229 6.78715 18.3169 5.05921 17.2599C3.33128 16.2029 2.03699 14.5643 1.40899 12.6386C0.78098 10.7128 0.860437 8.6262 1.63307 6.75378C2.40571 4.88136 3.82086 3.34591 5.62418 2.42341C7.42749 1.50091 9.5007 1.25186 11.4712 1.72102C13.0347 2.09327 14.4521 2.8983 15.5675 4.03229L16.7027 3.37689C16.8939 3.26645 17.1307 3.27132 17.3173 3.38954C17.5039 3.50775 17.6094 3.71977 17.5913 3.9399L17.2944 7.53932C17.2784 7.73342 17.1682 7.90733 16.9995 8.00471C16.8309 8.1021 16.6252 8.11057 16.449 8.02738L13.1834 6.48477C12.9837 6.39043 12.8529 6.19302 12.8438 5.97233C12.8347 5.75164 12.9489 5.54414 13.1402 5.4337L14.4993 4.64902C13.5764 3.78684 12.44 3.17237 11.1961 2.87622Z" fill="#056BF1"/>
</g>
<defs>
<clipPath id="clip0_858_1512">
<rect width="19" height="19" fill="white" transform="translate(0 0.5)"/>
</clipPath>
</defs>
</svg>
