<svg width="25" height="25" viewBox="0 0 25 25" fill="none" xmlns="http://www.w3.org/2000/svg">
<mask id="path-1-inside-1_3020_5733" fill="white">
<path fill-rule="evenodd" clip-rule="evenodd" d="M13.5875 22.9167H11.4146C9.69687 22.9167 8.83958 22.9167 8.25 22.4104C7.66354 21.9031 7.53958 21.0542 7.29166 19.3542L5.72916 8.6875H19.2708L17.7104 19.3531L17.7099 19.3568C17.4613 21.0543 17.3371 21.9024 16.75 22.4094C16.1635 22.9167 15.3052 22.9167 13.5875 22.9167H13.5875Z"/>
</mask>
<path fill-rule="evenodd" clip-rule="evenodd" d="M13.5875 22.9167H11.4146C9.69687 22.9167 8.83958 22.9167 8.25 22.4104C7.66354 21.9031 7.53958 21.0542 7.29166 19.3542L5.72916 8.6875H19.2708L17.7104 19.3531L17.7099 19.3568C17.4613 21.0543 17.3371 21.9024 16.75 22.4094C16.1635 22.9167 15.3052 22.9167 13.5875 22.9167H13.5875Z" fill="white"/>
<path d="M8.25 22.4104L7.59578 23.1667L7.59854 23.1691L8.25 22.4104ZM7.29166 19.3542L8.2812 19.2099L8.2811 19.2092L7.29166 19.3542ZM5.72916 8.6875V7.6875H4.57201L4.73972 8.83244L5.72916 8.6875ZM19.2708 8.6875L20.2603 8.83226L20.4278 7.6875H19.2708V8.6875ZM17.7104 19.3531L18.6998 19.4982L18.6999 19.4979L17.7104 19.3531ZM17.7099 19.3568L16.7205 19.2117L16.7204 19.2119L17.7099 19.3568ZM16.75 22.4094L16.0964 21.6525L16.0958 21.6531L16.75 22.4094ZM11.4146 23.9167H13.5875V21.9167H11.4146V23.9167ZM7.59854 23.1691C8.09839 23.5983 8.67655 23.769 9.28435 23.8456C9.86398 23.9185 10.5817 23.9167 11.4146 23.9167V21.9167C10.5298 21.9167 9.95998 21.9148 9.53413 21.8612C9.13646 21.8112 8.99119 21.7288 8.90145 21.6517L7.59854 23.1691ZM6.30213 19.4985C6.42234 20.3228 6.52417 21.0336 6.6802 21.5966C6.84378 22.1869 7.0968 22.7351 7.59578 23.1667L8.90421 21.6541C8.81674 21.5784 8.71455 21.4486 8.60755 21.0625C8.49302 20.6492 8.4089 20.0856 8.2812 19.2099L6.30213 19.4985ZM4.73972 8.83244L6.30222 19.4991L8.2811 19.2092L6.7186 8.54256L4.73972 8.83244ZM19.2708 7.6875H5.72916V9.6875H19.2708V7.6875ZM18.6999 19.4979L20.2603 8.83226L18.2814 8.54274L16.7209 19.2084L18.6999 19.4979ZM18.6993 19.5019L18.6998 19.4982L16.721 19.208L16.7205 19.2117L18.6993 19.5019ZM17.4035 23.1663C17.9029 22.735 18.1564 22.1872 18.3204 21.5973C18.4767 21.0348 18.5788 20.3247 18.6993 19.5017L16.7204 19.2119C16.5924 20.0864 16.5081 20.6491 16.3934 21.0618C16.2863 21.4471 16.1841 21.5768 16.0964 21.6525L17.4035 23.1663ZM13.5875 23.9167C14.4203 23.9167 15.1385 23.9185 15.7181 23.8454C16.3258 23.7687 16.9051 23.5975 17.4042 23.1657L16.0958 21.6531C16.0085 21.7286 15.8654 21.811 15.4678 21.8611C15.0423 21.9148 14.4724 21.9167 13.5875 21.9167V23.9167ZM13.5875 23.9167H13.5875V21.9167H13.5875V23.9167Z" fill="#FFB120" mask="url(#path-1-inside-1_3020_5733)"/>
<path d="M7.05209 17.7083H17.951L18.7135 12.5H6.28854L7.05209 17.7083Z" fill="#FFB120"/>
<path d="M14.9584 3.75H10.0407C8.43616 3.75 7.63343 3.75 7.00191 4.18777C6.89321 4.26358 6.78957 4.34827 6.69182 4.44116C6.12406 4.97851 5.86901 5.83728 5.36152 7.55679L5.33007 7.66229C5.05144 8.60388 4.91255 9.07517 5.0593 9.4311C5.10586 9.54337 5.17075 9.64472 5.25059 9.72985C5.50302 10 5.94325 10 6.82284 10H18.178C19.0576 10 19.497 10 19.7503 9.72985C19.8289 9.64505 19.8944 9.54251 19.9407 9.4311C20.0874 9.07517 19.9486 8.60388 19.6699 7.66229L19.6385 7.55679C19.131 5.83728 18.8768 4.97851 18.3091 4.44116C18.211 4.34823 18.1071 4.26354 17.9981 4.18777C17.3666 3.75 16.5638 3.75 14.9584 3.75Z" fill="#FFB120"/>
</svg>
