<svg width="120" height="19" viewBox="0 0 120 19" fill="none" xmlns="http://www.w3.org/2000/svg">
<path d="M3.78891 1.221H6.91791C10.5509 1.221 14.3729 3.153 14.3729 8.991V10.356C14.3729 16.194 10.5509 18.126 6.91791 18.126H3.78891C1.26891 18.126 0.512906 17.223 0.512906 14.808V4.539C0.512906 2.124 1.26891 1.221 3.78891 1.221ZM10.0889 10.692V8.655C10.0889 6.198 8.76591 4.854 6.79191 4.854H5.40591C4.92291 4.854 4.79691 4.959 4.79691 5.463V13.884C4.79691 14.388 4.92291 14.493 5.40591 14.493H6.79191C8.76591 14.493 10.0889 13.149 10.0889 10.692ZM16.0724 12.708V10.776C16.0724 6.261 19.3064 4.959 22.1624 4.959C24.9554 4.959 28.2524 6.261 28.2524 10.776V12.708C28.2524 17.223 24.9554 18.525 22.1624 18.525C19.3694 18.525 16.0724 17.223 16.0724 12.708ZM24.0314 12.897V10.587C24.0314 9.096 23.0654 8.508 22.1624 8.508C21.2594 8.508 20.2934 9.096 20.2934 10.587V12.897C20.2934 14.388 21.2594 14.976 22.1624 14.976C23.0654 14.976 24.0314 14.388 24.0314 12.897ZM34.4487 18.126H30.1857V7.101C30.1857 5.715 31.1937 5.001 32.3067 5.001C33.1257 5.001 33.9027 5.4 34.2597 6.177C35.0367 5.442 36.0237 5.001 37.0527 5.001C37.3677 5.001 37.7247 5.043 38.0397 5.169C38.8377 5.505 39.2997 6.345 39.1527 7.332C39.0057 8.319 38.2497 8.949 37.3257 8.949C37.0317 8.949 36.6537 8.928 36.3597 8.949C35.2047 9.033 34.5117 9.684 34.4487 10.734V18.126ZM40.3396 18.126V7.248C40.3396 5.799 41.3266 5.148 42.5026 5.148C43.6786 5.148 44.6656 5.799 44.6656 7.248V18.126H40.3396ZM40.3186 2.313C40.3186 0.927 41.3266 0.380999 42.5026 0.380999C43.6786 0.380999 44.6866 0.927 44.6866 2.313C44.6866 3.699 43.6786 4.245 42.5026 4.245C41.3266 4.245 40.3186 3.699 40.3186 2.313ZM65.6588 6.24C65.6588 7.542 65.0078 8.718 63.6638 9.474C65.4698 10.188 66.2888 11.574 66.2888 13.212V13.233C66.2888 16.803 63.5168 18.126 59.7788 18.126H56.1248C53.6048 18.126 52.8488 17.223 52.8488 14.808V4.539C52.8488 2.124 53.6048 1.221 56.1248 1.221H59.1908C63.0338 1.221 65.6588 2.985 65.6588 6.114V6.24ZM60.0308 11.385H57.1118V13.947C57.1118 14.451 57.2378 14.556 57.7208 14.556H60.0308C61.4168 14.556 62.0258 13.8 62.0258 13.044V12.897C62.0258 12.141 61.4168 11.385 60.0308 11.385ZM57.7208 4.791C57.2378 4.791 57.1118 4.896 57.1118 5.4V7.962H59.4008C60.7868 7.962 61.3958 7.164 61.3958 6.45V6.303C61.3958 5.547 60.7868 4.791 59.4008 4.791H57.7208ZM67.6906 12.708V10.776C67.6906 6.261 70.9246 4.959 73.7806 4.959C76.5736 4.959 79.8706 6.261 79.8706 10.776V12.708C79.8706 17.223 76.5736 18.525 73.7806 18.525C70.9876 18.525 67.6906 17.223 67.6906 12.708ZM75.6496 12.897V10.587C75.6496 9.096 74.6836 8.508 73.7806 8.508C72.8776 8.508 71.9116 9.096 71.9116 10.587V12.897C71.9116 14.388 72.8776 14.976 73.7806 14.976C74.6836 14.976 75.6496 14.388 75.6496 12.897ZM83.2949 14.178V8.886H82.6019C81.2789 8.886 80.7539 8.046 80.7539 7.164C80.7539 6.303 81.2579 5.4 82.6019 5.4H83.2949V3.216C83.2949 1.788 84.3239 1.137 85.3739 1.137C86.4239 1.137 87.4529 1.788 87.4529 3.216V5.4H88.6919C90.0359 5.4 90.5399 6.303 90.5399 7.164C90.5399 8.046 90.0149 8.886 88.6919 8.886H87.4529V14.094C87.4529 14.724 87.7679 14.871 88.1249 14.892C88.4399 14.913 88.6289 14.808 89.0489 14.808C89.7419 14.808 90.3299 15.27 90.4769 15.963C90.6659 16.824 90.2879 17.538 89.6999 17.916C89.2169 18.231 88.4189 18.483 87.7049 18.483C84.9119 18.483 83.2949 17.349 83.2949 14.178ZM93.1797 14.178V8.886H92.4867C91.1637 8.886 90.6387 8.046 90.6387 7.164C90.6387 6.303 91.1427 5.4 92.4867 5.4H93.1797V3.216C93.1797 1.788 94.2087 1.137 95.2587 1.137C96.3087 1.137 97.3377 1.788 97.3377 3.216V5.4H98.5767C99.9207 5.4 100.425 6.303 100.425 7.164C100.425 8.046 99.8997 8.886 98.5767 8.886H97.3377V14.094C97.3377 14.724 97.6527 14.871 98.0097 14.892C98.3247 14.913 98.5137 14.808 98.9337 14.808C99.6267 14.808 100.215 15.27 100.362 15.963C100.551 16.824 100.173 17.538 99.5847 17.916C99.1017 18.231 98.3037 18.483 97.5897 18.483C94.7967 18.483 93.1797 17.349 93.1797 14.178ZM101.657 18.126V2.481C101.657 1.032 102.644 0.380999 103.82 0.380999C104.996 0.380999 105.983 1.032 105.983 2.481V18.126H101.657ZM114.477 18.483C111.432 18.483 108.009 17.055 108.009 12.666V10.818C108.009 6.345 111.306 5.001 113.994 5.001C116.913 5.001 119.79 6.135 119.79 11.7C119.79 12.057 119.748 12.645 119.685 13.002H112.167V13.023C112.167 14.451 113.553 14.934 114.561 14.934C115.59 14.934 116.031 14.85 116.598 14.661C116.913 14.556 117.228 14.388 117.585 14.346C118.299 14.262 118.971 14.514 119.244 15.144C119.685 16.173 119.181 17.055 118.173 17.643C117.501 18.042 116.01 18.483 114.477 18.483ZM114.015 8.403C113.091 8.403 112.188 8.865 112.167 10.251H115.716C115.779 8.865 114.939 8.403 114.015 8.403Z" fill="#056BF1"/>
</svg>
